%TF.GenerationSoftware,KiCad,Pcbnew,(5.1.6)-1*%
%TF.CreationDate,2021-06-22T07:47:15-05:00*%
%TF.ProjectId,Sapphire_AnalogMic,53617070-6869-4726-955f-416e616c6f67,rev?*%
%TF.SameCoordinates,Original*%
%TF.FileFunction,Paste,Top*%
%TF.FilePolarity,Positive*%
%FSLAX46Y46*%
G04 Gerber Fmt 4.6, Leading zero omitted, Abs format (unit mm)*
G04 Created by KiCad (PCBNEW (5.1.6)-1) date 2021-06-22 07:47:15*
%MOMM*%
%LPD*%
G01*
G04 APERTURE LIST*
%ADD10O,0.449999X1.350000*%
%ADD11R,1.000001X0.599999*%
%ADD12R,1.981200X0.558800*%
%ADD13R,1.320800X0.406400*%
%ADD14R,1.460500X0.533400*%
%ADD15R,1.473200X0.558800*%
%ADD16R,1.100000X0.250000*%
%ADD17R,1.574800X0.558800*%
G04 APERTURE END LIST*
D10*
%TO.C,U102*%
X117179999Y-117414002D03*
X116529998Y-117414002D03*
X115879999Y-117414002D03*
X115229998Y-117414002D03*
X115229998Y-112964001D03*
X115879999Y-112964001D03*
X116529998Y-112964001D03*
X117179999Y-112964001D03*
%TD*%
%TO.C,C113*%
G36*
G01*
X115191250Y-123475000D02*
X114678750Y-123475000D01*
G75*
G02*
X114460000Y-123256250I0J218750D01*
G01*
X114460000Y-122818750D01*
G75*
G02*
X114678750Y-122600000I218750J0D01*
G01*
X115191250Y-122600000D01*
G75*
G02*
X115410000Y-122818750I0J-218750D01*
G01*
X115410000Y-123256250D01*
G75*
G02*
X115191250Y-123475000I-218750J0D01*
G01*
G37*
G36*
G01*
X115191250Y-125050000D02*
X114678750Y-125050000D01*
G75*
G02*
X114460000Y-124831250I0J218750D01*
G01*
X114460000Y-124393750D01*
G75*
G02*
X114678750Y-124175000I218750J0D01*
G01*
X115191250Y-124175000D01*
G75*
G02*
X115410000Y-124393750I0J-218750D01*
G01*
X115410000Y-124831250D01*
G75*
G02*
X115191250Y-125050000I-218750J0D01*
G01*
G37*
%TD*%
D11*
%TO.C,U109*%
X120119999Y-127319999D03*
X120119999Y-128270000D03*
X120119999Y-129219998D03*
X117369999Y-129219998D03*
X117369999Y-128270000D03*
X117369999Y-127319999D03*
%TD*%
D12*
%TO.C,U108*%
X128003300Y-121920000D03*
X128003300Y-123190000D03*
X128003300Y-124460000D03*
X128003300Y-125730000D03*
X123075700Y-125730000D03*
X123075700Y-124460000D03*
X123075700Y-123190000D03*
X123075700Y-121920000D03*
%TD*%
D13*
%TO.C,U101*%
X123012200Y-119593360D03*
X123012200Y-118943120D03*
X123012200Y-118292880D03*
X123012200Y-117642640D03*
X127431800Y-117642640D03*
X127431800Y-118292880D03*
X127431800Y-118943120D03*
X127431800Y-119593360D03*
%TD*%
%TO.C,C105*%
G36*
G01*
X122049250Y-106203000D02*
X121536750Y-106203000D01*
G75*
G02*
X121318000Y-105984250I0J218750D01*
G01*
X121318000Y-105546750D01*
G75*
G02*
X121536750Y-105328000I218750J0D01*
G01*
X122049250Y-105328000D01*
G75*
G02*
X122268000Y-105546750I0J-218750D01*
G01*
X122268000Y-105984250D01*
G75*
G02*
X122049250Y-106203000I-218750J0D01*
G01*
G37*
G36*
G01*
X122049250Y-107778000D02*
X121536750Y-107778000D01*
G75*
G02*
X121318000Y-107559250I0J218750D01*
G01*
X121318000Y-107121750D01*
G75*
G02*
X121536750Y-106903000I218750J0D01*
G01*
X122049250Y-106903000D01*
G75*
G02*
X122268000Y-107121750I0J-218750D01*
G01*
X122268000Y-107559250D01*
G75*
G02*
X122049250Y-107778000I-218750J0D01*
G01*
G37*
%TD*%
D14*
%TO.C,U107*%
X128835150Y-111379000D03*
X128835150Y-112649000D03*
X128835150Y-113919000D03*
X128835150Y-115189000D03*
X123386850Y-115189000D03*
X123386850Y-113919000D03*
X123386850Y-112649000D03*
X123386850Y-111379000D03*
%TD*%
%TO.C,C112*%
G36*
G01*
X121668250Y-114077000D02*
X121155750Y-114077000D01*
G75*
G02*
X120937000Y-113858250I0J218750D01*
G01*
X120937000Y-113420750D01*
G75*
G02*
X121155750Y-113202000I218750J0D01*
G01*
X121668250Y-113202000D01*
G75*
G02*
X121887000Y-113420750I0J-218750D01*
G01*
X121887000Y-113858250D01*
G75*
G02*
X121668250Y-114077000I-218750J0D01*
G01*
G37*
G36*
G01*
X121668250Y-115652000D02*
X121155750Y-115652000D01*
G75*
G02*
X120937000Y-115433250I0J218750D01*
G01*
X120937000Y-114995750D01*
G75*
G02*
X121155750Y-114777000I218750J0D01*
G01*
X121668250Y-114777000D01*
G75*
G02*
X121887000Y-114995750I0J-218750D01*
G01*
X121887000Y-115433250D01*
G75*
G02*
X121668250Y-115652000I-218750J0D01*
G01*
G37*
%TD*%
%TO.C,C110*%
G36*
G01*
X125826000Y-109730250D02*
X125826000Y-109217750D01*
G75*
G02*
X126044750Y-108999000I218750J0D01*
G01*
X126482250Y-108999000D01*
G75*
G02*
X126701000Y-109217750I0J-218750D01*
G01*
X126701000Y-109730250D01*
G75*
G02*
X126482250Y-109949000I-218750J0D01*
G01*
X126044750Y-109949000D01*
G75*
G02*
X125826000Y-109730250I0J218750D01*
G01*
G37*
G36*
G01*
X124251000Y-109730250D02*
X124251000Y-109217750D01*
G75*
G02*
X124469750Y-108999000I218750J0D01*
G01*
X124907250Y-108999000D01*
G75*
G02*
X125126000Y-109217750I0J-218750D01*
G01*
X125126000Y-109730250D01*
G75*
G02*
X124907250Y-109949000I-218750J0D01*
G01*
X124469750Y-109949000D01*
G75*
G02*
X124251000Y-109730250I0J218750D01*
G01*
G37*
%TD*%
D15*
%TO.C,U106*%
X113690400Y-105217001D03*
X113690400Y-104267000D03*
X113690400Y-103316999D03*
X115925600Y-103316999D03*
X115925600Y-104267000D03*
X115925600Y-105217001D03*
%TD*%
%TO.C,R106*%
G36*
G01*
X126743750Y-96235000D02*
X127256250Y-96235000D01*
G75*
G02*
X127475000Y-96453750I0J-218750D01*
G01*
X127475000Y-96891250D01*
G75*
G02*
X127256250Y-97110000I-218750J0D01*
G01*
X126743750Y-97110000D01*
G75*
G02*
X126525000Y-96891250I0J218750D01*
G01*
X126525000Y-96453750D01*
G75*
G02*
X126743750Y-96235000I218750J0D01*
G01*
G37*
G36*
G01*
X126743750Y-94660000D02*
X127256250Y-94660000D01*
G75*
G02*
X127475000Y-94878750I0J-218750D01*
G01*
X127475000Y-95316250D01*
G75*
G02*
X127256250Y-95535000I-218750J0D01*
G01*
X126743750Y-95535000D01*
G75*
G02*
X126525000Y-95316250I0J218750D01*
G01*
X126525000Y-94878750D01*
G75*
G02*
X126743750Y-94660000I218750J0D01*
G01*
G37*
%TD*%
%TO.C,R104*%
G36*
G01*
X122171750Y-96235000D02*
X122684250Y-96235000D01*
G75*
G02*
X122903000Y-96453750I0J-218750D01*
G01*
X122903000Y-96891250D01*
G75*
G02*
X122684250Y-97110000I-218750J0D01*
G01*
X122171750Y-97110000D01*
G75*
G02*
X121953000Y-96891250I0J218750D01*
G01*
X121953000Y-96453750D01*
G75*
G02*
X122171750Y-96235000I218750J0D01*
G01*
G37*
G36*
G01*
X122171750Y-94660000D02*
X122684250Y-94660000D01*
G75*
G02*
X122903000Y-94878750I0J-218750D01*
G01*
X122903000Y-95316250D01*
G75*
G02*
X122684250Y-95535000I-218750J0D01*
G01*
X122171750Y-95535000D01*
G75*
G02*
X121953000Y-95316250I0J218750D01*
G01*
X121953000Y-94878750D01*
G75*
G02*
X122171750Y-94660000I218750J0D01*
G01*
G37*
%TD*%
D16*
%TO.C,U105*%
X128642000Y-98568000D03*
X128642000Y-99068000D03*
X128642000Y-99568000D03*
X128642000Y-100068000D03*
X128642000Y-100568000D03*
X124342000Y-100568000D03*
X124342000Y-100068000D03*
X124342000Y-99568000D03*
X124342000Y-99068000D03*
X124342000Y-98568000D03*
%TD*%
%TO.C,C106*%
G36*
G01*
X115285000Y-100586250D02*
X115285000Y-100073750D01*
G75*
G02*
X115503750Y-99855000I218750J0D01*
G01*
X115941250Y-99855000D01*
G75*
G02*
X116160000Y-100073750I0J-218750D01*
G01*
X116160000Y-100586250D01*
G75*
G02*
X115941250Y-100805000I-218750J0D01*
G01*
X115503750Y-100805000D01*
G75*
G02*
X115285000Y-100586250I0J218750D01*
G01*
G37*
G36*
G01*
X113710000Y-100586250D02*
X113710000Y-100073750D01*
G75*
G02*
X113928750Y-99855000I218750J0D01*
G01*
X114366250Y-99855000D01*
G75*
G02*
X114585000Y-100073750I0J-218750D01*
G01*
X114585000Y-100586250D01*
G75*
G02*
X114366250Y-100805000I-218750J0D01*
G01*
X113928750Y-100805000D01*
G75*
G02*
X113710000Y-100586250I0J218750D01*
G01*
G37*
%TD*%
%TO.C,R115*%
G36*
G01*
X129156750Y-96362000D02*
X129669250Y-96362000D01*
G75*
G02*
X129888000Y-96580750I0J-218750D01*
G01*
X129888000Y-97018250D01*
G75*
G02*
X129669250Y-97237000I-218750J0D01*
G01*
X129156750Y-97237000D01*
G75*
G02*
X128938000Y-97018250I0J218750D01*
G01*
X128938000Y-96580750D01*
G75*
G02*
X129156750Y-96362000I218750J0D01*
G01*
G37*
G36*
G01*
X129156750Y-94787000D02*
X129669250Y-94787000D01*
G75*
G02*
X129888000Y-95005750I0J-218750D01*
G01*
X129888000Y-95443250D01*
G75*
G02*
X129669250Y-95662000I-218750J0D01*
G01*
X129156750Y-95662000D01*
G75*
G02*
X128938000Y-95443250I0J218750D01*
G01*
X128938000Y-95005750D01*
G75*
G02*
X129156750Y-94787000I218750J0D01*
G01*
G37*
%TD*%
%TO.C,R114*%
G36*
G01*
X124457750Y-96235000D02*
X124970250Y-96235000D01*
G75*
G02*
X125189000Y-96453750I0J-218750D01*
G01*
X125189000Y-96891250D01*
G75*
G02*
X124970250Y-97110000I-218750J0D01*
G01*
X124457750Y-97110000D01*
G75*
G02*
X124239000Y-96891250I0J218750D01*
G01*
X124239000Y-96453750D01*
G75*
G02*
X124457750Y-96235000I218750J0D01*
G01*
G37*
G36*
G01*
X124457750Y-94660000D02*
X124970250Y-94660000D01*
G75*
G02*
X125189000Y-94878750I0J-218750D01*
G01*
X125189000Y-95316250D01*
G75*
G02*
X124970250Y-95535000I-218750J0D01*
G01*
X124457750Y-95535000D01*
G75*
G02*
X124239000Y-95316250I0J218750D01*
G01*
X124239000Y-94878750D01*
G75*
G02*
X124457750Y-94660000I218750J0D01*
G01*
G37*
%TD*%
%TO.C,R113*%
G36*
G01*
X119885750Y-96235000D02*
X120398250Y-96235000D01*
G75*
G02*
X120617000Y-96453750I0J-218750D01*
G01*
X120617000Y-96891250D01*
G75*
G02*
X120398250Y-97110000I-218750J0D01*
G01*
X119885750Y-97110000D01*
G75*
G02*
X119667000Y-96891250I0J218750D01*
G01*
X119667000Y-96453750D01*
G75*
G02*
X119885750Y-96235000I218750J0D01*
G01*
G37*
G36*
G01*
X119885750Y-94660000D02*
X120398250Y-94660000D01*
G75*
G02*
X120617000Y-94878750I0J-218750D01*
G01*
X120617000Y-95316250D01*
G75*
G02*
X120398250Y-95535000I-218750J0D01*
G01*
X119885750Y-95535000D01*
G75*
G02*
X119667000Y-95316250I0J218750D01*
G01*
X119667000Y-94878750D01*
G75*
G02*
X119885750Y-94660000I218750J0D01*
G01*
G37*
%TD*%
%TO.C,R112*%
G36*
G01*
X118112250Y-95535000D02*
X117599750Y-95535000D01*
G75*
G02*
X117381000Y-95316250I0J218750D01*
G01*
X117381000Y-94878750D01*
G75*
G02*
X117599750Y-94660000I218750J0D01*
G01*
X118112250Y-94660000D01*
G75*
G02*
X118331000Y-94878750I0J-218750D01*
G01*
X118331000Y-95316250D01*
G75*
G02*
X118112250Y-95535000I-218750J0D01*
G01*
G37*
G36*
G01*
X118112250Y-97110000D02*
X117599750Y-97110000D01*
G75*
G02*
X117381000Y-96891250I0J218750D01*
G01*
X117381000Y-96453750D01*
G75*
G02*
X117599750Y-96235000I218750J0D01*
G01*
X118112250Y-96235000D01*
G75*
G02*
X118331000Y-96453750I0J-218750D01*
G01*
X118331000Y-96891250D01*
G75*
G02*
X118112250Y-97110000I-218750J0D01*
G01*
G37*
%TD*%
%TO.C,R110*%
G36*
G01*
X118776000Y-100708750D02*
X118776000Y-101221250D01*
G75*
G02*
X118557250Y-101440000I-218750J0D01*
G01*
X118119750Y-101440000D01*
G75*
G02*
X117901000Y-101221250I0J218750D01*
G01*
X117901000Y-100708750D01*
G75*
G02*
X118119750Y-100490000I218750J0D01*
G01*
X118557250Y-100490000D01*
G75*
G02*
X118776000Y-100708750I0J-218750D01*
G01*
G37*
G36*
G01*
X120351000Y-100708750D02*
X120351000Y-101221250D01*
G75*
G02*
X120132250Y-101440000I-218750J0D01*
G01*
X119694750Y-101440000D01*
G75*
G02*
X119476000Y-101221250I0J218750D01*
G01*
X119476000Y-100708750D01*
G75*
G02*
X119694750Y-100490000I218750J0D01*
G01*
X120132250Y-100490000D01*
G75*
G02*
X120351000Y-100708750I0J-218750D01*
G01*
G37*
%TD*%
%TO.C,R109*%
G36*
G01*
X118776000Y-98803750D02*
X118776000Y-99316250D01*
G75*
G02*
X118557250Y-99535000I-218750J0D01*
G01*
X118119750Y-99535000D01*
G75*
G02*
X117901000Y-99316250I0J218750D01*
G01*
X117901000Y-98803750D01*
G75*
G02*
X118119750Y-98585000I218750J0D01*
G01*
X118557250Y-98585000D01*
G75*
G02*
X118776000Y-98803750I0J-218750D01*
G01*
G37*
G36*
G01*
X120351000Y-98803750D02*
X120351000Y-99316250D01*
G75*
G02*
X120132250Y-99535000I-218750J0D01*
G01*
X119694750Y-99535000D01*
G75*
G02*
X119476000Y-99316250I0J218750D01*
G01*
X119476000Y-98803750D01*
G75*
G02*
X119694750Y-98585000I218750J0D01*
G01*
X120132250Y-98585000D01*
G75*
G02*
X120351000Y-98803750I0J-218750D01*
G01*
G37*
%TD*%
%TO.C,R105*%
G36*
G01*
X112651250Y-100361000D02*
X112138750Y-100361000D01*
G75*
G02*
X111920000Y-100142250I0J218750D01*
G01*
X111920000Y-99704750D01*
G75*
G02*
X112138750Y-99486000I218750J0D01*
G01*
X112651250Y-99486000D01*
G75*
G02*
X112870000Y-99704750I0J-218750D01*
G01*
X112870000Y-100142250D01*
G75*
G02*
X112651250Y-100361000I-218750J0D01*
G01*
G37*
G36*
G01*
X112651250Y-101936000D02*
X112138750Y-101936000D01*
G75*
G02*
X111920000Y-101717250I0J218750D01*
G01*
X111920000Y-101279750D01*
G75*
G02*
X112138750Y-101061000I218750J0D01*
G01*
X112651250Y-101061000D01*
G75*
G02*
X112870000Y-101279750I0J-218750D01*
G01*
X112870000Y-101717250D01*
G75*
G02*
X112651250Y-101936000I-218750J0D01*
G01*
G37*
%TD*%
%TO.C,R103*%
G36*
G01*
X119128250Y-114458000D02*
X118615750Y-114458000D01*
G75*
G02*
X118397000Y-114239250I0J218750D01*
G01*
X118397000Y-113801750D01*
G75*
G02*
X118615750Y-113583000I218750J0D01*
G01*
X119128250Y-113583000D01*
G75*
G02*
X119347000Y-113801750I0J-218750D01*
G01*
X119347000Y-114239250D01*
G75*
G02*
X119128250Y-114458000I-218750J0D01*
G01*
G37*
G36*
G01*
X119128250Y-116033000D02*
X118615750Y-116033000D01*
G75*
G02*
X118397000Y-115814250I0J218750D01*
G01*
X118397000Y-115376750D01*
G75*
G02*
X118615750Y-115158000I218750J0D01*
G01*
X119128250Y-115158000D01*
G75*
G02*
X119347000Y-115376750I0J-218750D01*
G01*
X119347000Y-115814250D01*
G75*
G02*
X119128250Y-116033000I-218750J0D01*
G01*
G37*
%TD*%
%TO.C,R102*%
G36*
G01*
X117604250Y-108108000D02*
X117091750Y-108108000D01*
G75*
G02*
X116873000Y-107889250I0J218750D01*
G01*
X116873000Y-107451750D01*
G75*
G02*
X117091750Y-107233000I218750J0D01*
G01*
X117604250Y-107233000D01*
G75*
G02*
X117823000Y-107451750I0J-218750D01*
G01*
X117823000Y-107889250D01*
G75*
G02*
X117604250Y-108108000I-218750J0D01*
G01*
G37*
G36*
G01*
X117604250Y-109683000D02*
X117091750Y-109683000D01*
G75*
G02*
X116873000Y-109464250I0J218750D01*
G01*
X116873000Y-109026750D01*
G75*
G02*
X117091750Y-108808000I218750J0D01*
G01*
X117604250Y-108808000D01*
G75*
G02*
X117823000Y-109026750I0J-218750D01*
G01*
X117823000Y-109464250D01*
G75*
G02*
X117604250Y-109683000I-218750J0D01*
G01*
G37*
%TD*%
%TO.C,R101*%
G36*
G01*
X115826250Y-108108000D02*
X115313750Y-108108000D01*
G75*
G02*
X115095000Y-107889250I0J218750D01*
G01*
X115095000Y-107451750D01*
G75*
G02*
X115313750Y-107233000I218750J0D01*
G01*
X115826250Y-107233000D01*
G75*
G02*
X116045000Y-107451750I0J-218750D01*
G01*
X116045000Y-107889250D01*
G75*
G02*
X115826250Y-108108000I-218750J0D01*
G01*
G37*
G36*
G01*
X115826250Y-109683000D02*
X115313750Y-109683000D01*
G75*
G02*
X115095000Y-109464250I0J218750D01*
G01*
X115095000Y-109026750D01*
G75*
G02*
X115313750Y-108808000I218750J0D01*
G01*
X115826250Y-108808000D01*
G75*
G02*
X116045000Y-109026750I0J-218750D01*
G01*
X116045000Y-109464250D01*
G75*
G02*
X115826250Y-109683000I-218750J0D01*
G01*
G37*
%TD*%
%TO.C,FB102*%
G36*
G01*
X122298750Y-129255000D02*
X122811250Y-129255000D01*
G75*
G02*
X123030000Y-129473750I0J-218750D01*
G01*
X123030000Y-129911250D01*
G75*
G02*
X122811250Y-130130000I-218750J0D01*
G01*
X122298750Y-130130000D01*
G75*
G02*
X122080000Y-129911250I0J218750D01*
G01*
X122080000Y-129473750D01*
G75*
G02*
X122298750Y-129255000I218750J0D01*
G01*
G37*
G36*
G01*
X122298750Y-127680000D02*
X122811250Y-127680000D01*
G75*
G02*
X123030000Y-127898750I0J-218750D01*
G01*
X123030000Y-128336250D01*
G75*
G02*
X122811250Y-128555000I-218750J0D01*
G01*
X122298750Y-128555000D01*
G75*
G02*
X122080000Y-128336250I0J218750D01*
G01*
X122080000Y-127898750D01*
G75*
G02*
X122298750Y-127680000I218750J0D01*
G01*
G37*
%TD*%
%TO.C,FB101*%
G36*
G01*
X127378750Y-129255000D02*
X127891250Y-129255000D01*
G75*
G02*
X128110000Y-129473750I0J-218750D01*
G01*
X128110000Y-129911250D01*
G75*
G02*
X127891250Y-130130000I-218750J0D01*
G01*
X127378750Y-130130000D01*
G75*
G02*
X127160000Y-129911250I0J218750D01*
G01*
X127160000Y-129473750D01*
G75*
G02*
X127378750Y-129255000I218750J0D01*
G01*
G37*
G36*
G01*
X127378750Y-127680000D02*
X127891250Y-127680000D01*
G75*
G02*
X128110000Y-127898750I0J-218750D01*
G01*
X128110000Y-128336250D01*
G75*
G02*
X127891250Y-128555000I-218750J0D01*
G01*
X127378750Y-128555000D01*
G75*
G02*
X127160000Y-128336250I0J218750D01*
G01*
X127160000Y-127898750D01*
G75*
G02*
X127378750Y-127680000I218750J0D01*
G01*
G37*
%TD*%
%TO.C,C111*%
G36*
G01*
X124556000Y-103888250D02*
X124556000Y-103375750D01*
G75*
G02*
X124774750Y-103157000I218750J0D01*
G01*
X125212250Y-103157000D01*
G75*
G02*
X125431000Y-103375750I0J-218750D01*
G01*
X125431000Y-103888250D01*
G75*
G02*
X125212250Y-104107000I-218750J0D01*
G01*
X124774750Y-104107000D01*
G75*
G02*
X124556000Y-103888250I0J218750D01*
G01*
G37*
G36*
G01*
X122981000Y-103888250D02*
X122981000Y-103375750D01*
G75*
G02*
X123199750Y-103157000I218750J0D01*
G01*
X123637250Y-103157000D01*
G75*
G02*
X123856000Y-103375750I0J-218750D01*
G01*
X123856000Y-103888250D01*
G75*
G02*
X123637250Y-104107000I-218750J0D01*
G01*
X123199750Y-104107000D01*
G75*
G02*
X122981000Y-103888250I0J218750D01*
G01*
G37*
%TD*%
%TO.C,C109*%
G36*
G01*
X130553750Y-100680000D02*
X131066250Y-100680000D01*
G75*
G02*
X131285000Y-100898750I0J-218750D01*
G01*
X131285000Y-101336250D01*
G75*
G02*
X131066250Y-101555000I-218750J0D01*
G01*
X130553750Y-101555000D01*
G75*
G02*
X130335000Y-101336250I0J218750D01*
G01*
X130335000Y-100898750D01*
G75*
G02*
X130553750Y-100680000I218750J0D01*
G01*
G37*
G36*
G01*
X130553750Y-99105000D02*
X131066250Y-99105000D01*
G75*
G02*
X131285000Y-99323750I0J-218750D01*
G01*
X131285000Y-99761250D01*
G75*
G02*
X131066250Y-99980000I-218750J0D01*
G01*
X130553750Y-99980000D01*
G75*
G02*
X130335000Y-99761250I0J218750D01*
G01*
X130335000Y-99323750D01*
G75*
G02*
X130553750Y-99105000I218750J0D01*
G01*
G37*
%TD*%
%TO.C,C108*%
G36*
G01*
X128047000Y-103248750D02*
X128047000Y-103761250D01*
G75*
G02*
X127828250Y-103980000I-218750J0D01*
G01*
X127390750Y-103980000D01*
G75*
G02*
X127172000Y-103761250I0J218750D01*
G01*
X127172000Y-103248750D01*
G75*
G02*
X127390750Y-103030000I218750J0D01*
G01*
X127828250Y-103030000D01*
G75*
G02*
X128047000Y-103248750I0J-218750D01*
G01*
G37*
G36*
G01*
X129622000Y-103248750D02*
X129622000Y-103761250D01*
G75*
G02*
X129403250Y-103980000I-218750J0D01*
G01*
X128965750Y-103980000D01*
G75*
G02*
X128747000Y-103761250I0J218750D01*
G01*
X128747000Y-103248750D01*
G75*
G02*
X128965750Y-103030000I218750J0D01*
G01*
X129403250Y-103030000D01*
G75*
G02*
X129622000Y-103248750I0J-218750D01*
G01*
G37*
%TD*%
%TO.C,C107*%
G36*
G01*
X122044750Y-100172000D02*
X122557250Y-100172000D01*
G75*
G02*
X122776000Y-100390750I0J-218750D01*
G01*
X122776000Y-100828250D01*
G75*
G02*
X122557250Y-101047000I-218750J0D01*
G01*
X122044750Y-101047000D01*
G75*
G02*
X121826000Y-100828250I0J218750D01*
G01*
X121826000Y-100390750D01*
G75*
G02*
X122044750Y-100172000I218750J0D01*
G01*
G37*
G36*
G01*
X122044750Y-98597000D02*
X122557250Y-98597000D01*
G75*
G02*
X122776000Y-98815750I0J-218750D01*
G01*
X122776000Y-99253250D01*
G75*
G02*
X122557250Y-99472000I-218750J0D01*
G01*
X122044750Y-99472000D01*
G75*
G02*
X121826000Y-99253250I0J218750D01*
G01*
X121826000Y-98815750D01*
G75*
G02*
X122044750Y-98597000I218750J0D01*
G01*
G37*
%TD*%
%TO.C,C104*%
G36*
G01*
X116047000Y-120779250D02*
X116047000Y-120266750D01*
G75*
G02*
X116265750Y-120048000I218750J0D01*
G01*
X116703250Y-120048000D01*
G75*
G02*
X116922000Y-120266750I0J-218750D01*
G01*
X116922000Y-120779250D01*
G75*
G02*
X116703250Y-120998000I-218750J0D01*
G01*
X116265750Y-120998000D01*
G75*
G02*
X116047000Y-120779250I0J218750D01*
G01*
G37*
G36*
G01*
X114472000Y-120779250D02*
X114472000Y-120266750D01*
G75*
G02*
X114690750Y-120048000I218750J0D01*
G01*
X115128250Y-120048000D01*
G75*
G02*
X115347000Y-120266750I0J-218750D01*
G01*
X115347000Y-120779250D01*
G75*
G02*
X115128250Y-120998000I-218750J0D01*
G01*
X114690750Y-120998000D01*
G75*
G02*
X114472000Y-120779250I0J218750D01*
G01*
G37*
%TD*%
%TO.C,C103*%
G36*
G01*
X119603000Y-120779250D02*
X119603000Y-120266750D01*
G75*
G02*
X119821750Y-120048000I218750J0D01*
G01*
X120259250Y-120048000D01*
G75*
G02*
X120478000Y-120266750I0J-218750D01*
G01*
X120478000Y-120779250D01*
G75*
G02*
X120259250Y-120998000I-218750J0D01*
G01*
X119821750Y-120998000D01*
G75*
G02*
X119603000Y-120779250I0J218750D01*
G01*
G37*
G36*
G01*
X118028000Y-120779250D02*
X118028000Y-120266750D01*
G75*
G02*
X118246750Y-120048000I218750J0D01*
G01*
X118684250Y-120048000D01*
G75*
G02*
X118903000Y-120266750I0J-218750D01*
G01*
X118903000Y-120779250D01*
G75*
G02*
X118684250Y-120998000I-218750J0D01*
G01*
X118246750Y-120998000D01*
G75*
G02*
X118028000Y-120779250I0J218750D01*
G01*
G37*
%TD*%
%TO.C,C102*%
G36*
G01*
X125351250Y-128555000D02*
X124838750Y-128555000D01*
G75*
G02*
X124620000Y-128336250I0J218750D01*
G01*
X124620000Y-127898750D01*
G75*
G02*
X124838750Y-127680000I218750J0D01*
G01*
X125351250Y-127680000D01*
G75*
G02*
X125570000Y-127898750I0J-218750D01*
G01*
X125570000Y-128336250D01*
G75*
G02*
X125351250Y-128555000I-218750J0D01*
G01*
G37*
G36*
G01*
X125351250Y-130130000D02*
X124838750Y-130130000D01*
G75*
G02*
X124620000Y-129911250I0J218750D01*
G01*
X124620000Y-129473750D01*
G75*
G02*
X124838750Y-129255000I218750J0D01*
G01*
X125351250Y-129255000D01*
G75*
G02*
X125570000Y-129473750I0J-218750D01*
G01*
X125570000Y-129911250D01*
G75*
G02*
X125351250Y-130130000I-218750J0D01*
G01*
G37*
%TD*%
%TO.C,C101*%
G36*
G01*
X116555000Y-111127250D02*
X116555000Y-110614750D01*
G75*
G02*
X116773750Y-110396000I218750J0D01*
G01*
X117211250Y-110396000D01*
G75*
G02*
X117430000Y-110614750I0J-218750D01*
G01*
X117430000Y-111127250D01*
G75*
G02*
X117211250Y-111346000I-218750J0D01*
G01*
X116773750Y-111346000D01*
G75*
G02*
X116555000Y-111127250I0J218750D01*
G01*
G37*
G36*
G01*
X114980000Y-111127250D02*
X114980000Y-110614750D01*
G75*
G02*
X115198750Y-110396000I218750J0D01*
G01*
X115636250Y-110396000D01*
G75*
G02*
X115855000Y-110614750I0J-218750D01*
G01*
X115855000Y-111127250D01*
G75*
G02*
X115636250Y-111346000I-218750J0D01*
G01*
X115198750Y-111346000D01*
G75*
G02*
X114980000Y-111127250I0J218750D01*
G01*
G37*
%TD*%
D13*
%TO.C,U104*%
X128447800Y-105577640D03*
X128447800Y-106227880D03*
X128447800Y-106878120D03*
X128447800Y-107528360D03*
X124028200Y-107528360D03*
X124028200Y-106878120D03*
X124028200Y-106227880D03*
X124028200Y-105577640D03*
%TD*%
D17*
%TO.C,U103*%
X119913400Y-122874999D03*
X119913400Y-124775001D03*
X117576600Y-124775001D03*
X117576600Y-123825000D03*
X117576600Y-122874999D03*
%TD*%
M02*
