G04 #@! TF.GenerationSoftware,KiCad,Pcbnew,(5.1.6)-1*
G04 #@! TF.CreationDate,2021-05-29T12:10:38-05:00*
G04 #@! TF.ProjectId,SapphineMinimal,53617070-6869-46e6-954d-696e696d616c,rev?*
G04 #@! TF.SameCoordinates,Original*
G04 #@! TF.FileFunction,Profile,NP*
%FSLAX46Y46*%
G04 Gerber Fmt 4.6, Leading zero omitted, Abs format (unit mm)*
G04 Created by KiCad (PCBNEW (5.1.6)-1) date 2021-05-29 12:10:38*
%MOMM*%
%LPD*%
G01*
G04 APERTURE LIST*
G04 #@! TA.AperFunction,Profile*
%ADD10C,0.050000*%
G04 #@! TD*
G04 APERTURE END LIST*
D10*
X77216000Y-127000000D02*
X99822000Y-127000000D01*
X107950000Y-125222000D02*
X107950000Y-126492000D01*
X108458000Y-127000000D02*
G75*
G02*
X107950000Y-126492000I0J508000D01*
G01*
X107442000Y-124714000D02*
G75*
G02*
X107950000Y-125222000I0J-508000D01*
G01*
X100838000Y-124714000D02*
X107442000Y-124714000D01*
X100330000Y-125222000D02*
G75*
G02*
X100838000Y-124714000I508000J0D01*
G01*
X100330000Y-126492000D02*
X100330000Y-125222000D01*
X100330000Y-126492000D02*
G75*
G02*
X99822000Y-127000000I-508000J0D01*
G01*
X78740000Y-66040000D02*
X87122000Y-66040000D01*
X88392000Y-67310000D02*
X97028000Y-67310000D01*
X98298000Y-66040000D02*
X101600000Y-66040000D01*
X87757000Y-66675000D02*
G75*
G03*
X87122000Y-66040000I-635000J0D01*
G01*
X98298000Y-66040000D02*
G75*
G03*
X97663000Y-66675000I0J-635000D01*
G01*
X97663000Y-66675000D02*
G75*
G02*
X97028000Y-67310000I-635000J0D01*
G01*
X88392000Y-67310000D02*
G75*
G02*
X87757000Y-66675000I0J635000D01*
G01*
X131572000Y-126746000D02*
X131572000Y-83820000D01*
X103632000Y-68072000D02*
X109728000Y-68072000D01*
X103632000Y-68072000D02*
G75*
G02*
X102616000Y-67056000I0J1016000D01*
G01*
X110744000Y-67056000D02*
G75*
G02*
X109728000Y-68072000I-1016000J0D01*
G01*
X102616000Y-67056000D02*
G75*
G03*
X101600000Y-66040000I-1016000J0D01*
G01*
X111760000Y-66040000D02*
G75*
G03*
X110744000Y-67056000I0J-1016000D01*
G01*
X131318000Y-66040000D02*
X111760000Y-66040000D01*
X131572000Y-126746000D02*
G75*
G02*
X131318000Y-127000000I-254000J0D01*
G01*
X77216000Y-127000000D02*
G75*
G02*
X76962000Y-126746000I0J254000D01*
G01*
X76962000Y-66294000D02*
G75*
G02*
X77216000Y-66040000I254000J0D01*
G01*
X131318000Y-66040000D02*
G75*
G02*
X131572000Y-66294000I0J-254000D01*
G01*
X131572000Y-83820000D02*
G75*
G03*
X131064000Y-83312000I-508000J0D01*
G01*
X131064000Y-83312000D02*
G75*
G02*
X130556000Y-82804000I0J508000D01*
G01*
X130556000Y-80264000D02*
G75*
G02*
X131064000Y-79756000I508000J0D01*
G01*
X131064000Y-79756000D02*
G75*
G03*
X131572000Y-79248000I0J508000D01*
G01*
X130556000Y-80264000D02*
X130556000Y-82804000D01*
X131572000Y-66294000D02*
X131572000Y-79248000D01*
X77216000Y-66040000D02*
X78740000Y-66040000D01*
X131318000Y-127000000D02*
X108458000Y-127000000D01*
X76962000Y-126746000D02*
X76962000Y-66294000D01*
M02*
