M48
; DRILL file {KiCad (5.1.5)-3} date 6/1/2020 7:40:31 PM
; FORMAT={-:-/ absolute / inch / decimal}
; #@! TF.CreationDate,2020-06-01T19:40:31-05:00
; #@! TF.GenerationSoftware,Kicad,Pcbnew,(5.1.5)-3
; #@! TF.FileFunction,Plated,1,4,PTH
FMAT,2
INCH
T1C0.0157
T2C0.0177
T3C0.0256
T4C0.0276
T5C0.0280
T6C0.0394
%
G90
G05
T1
X3.075Y-4.195
X3.1Y-4.625
X3.15Y-4.195
X3.1988Y-4.0
X3.2037Y-4.295
X3.2274Y-4.197
X3.3Y-2.775
X3.3Y-4.195
X3.325Y-4.45
X3.35Y-3.65
X3.4228Y-4.1306
X3.425Y-3.4
X3.425Y-3.4459
X3.425Y-3.55
X3.425Y-4.05
X3.425Y-4.275
X3.4465Y-4.575
X3.45Y-3.05
X3.4667Y-4.1828
X3.4683Y-3.65
X3.475Y-4.375
X3.486Y-3.7369
X3.4929Y-4.3267
X3.4965Y-3.8517
X3.5032Y-4.201
X3.5215Y-3.35
X3.525Y-3.2
X3.525Y-3.275
X3.525Y-4.625
X3.53Y-4.515
X3.55Y-2.935
X3.55Y-2.975
X3.55Y-4.4
X3.575Y-4.475
X3.5828Y-4.2783
X3.5894Y-2.935
X3.6Y-3.575
X3.6035Y-3.975
X3.6035Y-4.025
X3.625Y-4.825
X3.6287Y-2.935
X3.65Y-4.3
X3.6681Y-2.935
X3.675Y-3.575
X3.675Y-3.975
X3.6923Y-4.7077
X3.695Y-3.685
X3.7075Y-2.9348
X3.7152Y-3.4502
X3.7285Y-3.522
X3.75Y-3.1957
X3.75Y-3.125
X3.75Y-3.24
X3.775Y-4.46
X3.7776Y-4.5124
X3.8Y-2.95
X3.8029Y-3.0702
X3.825Y-4.525
X3.84Y-4.43
X3.865Y-2.665
X3.875Y-3.4215
X3.9Y-4.1
X3.95Y-2.725
X3.95Y-3.4785
X3.95Y-4.2715
X3.9709Y-3.1623
X3.975Y-2.775
X3.975Y-4.0965
X4.0Y-3.925
X4.04Y-4.635
X4.05Y-4.0963
X4.0748Y-2.9134
X4.075Y-3.925
X4.075Y-4.35
X4.075Y-4.4
X4.08Y-4.635
X4.1Y-4.0963
X4.1201Y-3.2909
X4.125Y-3.575
X4.125Y-4.35
X4.125Y-4.4
X4.13Y-4.635
X4.16Y-2.785
X4.175Y-3.575
X4.2Y-2.785
X4.2Y-4.275
X4.21Y-4.65
X4.2248Y-4.1705
X4.2309Y-4.5248
X4.24Y-4.41
X4.24Y-4.465
X4.245Y-2.785
X4.25Y-3.44
X4.275Y-3.2
X4.285Y-4.675
X4.3Y-2.785
X4.3Y-4.1285
X4.3166Y-4.6252
X4.3179Y-2.8535
X4.3316Y-2.9189
X4.35Y-2.785
X4.375Y-4.1
X4.415Y-4.775
X4.44Y-2.665
X4.4574Y-3.3027
X4.475Y-4.6
X4.5Y-3.215
X4.5Y-3.16
X4.5013Y-2.9434
X4.505Y-4.32
X4.52Y-4.6
X4.525Y-4.275
X4.5583Y-3.2501
X4.5597Y-3.1852
X4.57Y-3.0
X4.57Y-2.955
X4.57Y-3.045
X4.57Y-3.09
X4.595Y-4.715
X4.5975Y-3.2468
X4.6Y-4.305
X4.6007Y-3.185
X4.625Y-3.93
X4.625Y-3.3
X4.625Y-3.55
X4.625Y-3.65
X4.625Y-3.7
X4.625Y-3.7528
X4.625Y-3.825
X4.64Y-2.955
X4.65Y-2.7
X4.65Y-4.805
X4.6667Y-3.3718
X4.6985Y-3.45
X4.7Y-4.525
X4.71Y-2.955
X4.7393Y-3.448
X4.8Y-4.65
X4.825Y-3.575
X4.825Y-3.625
X4.825Y-4.8
X4.83Y-4.325
X4.85Y-3.725
X4.8519Y-4.6483
X4.9Y-4.3
X5.0Y-3.5
X5.0Y-3.55
X5.05Y-3.575
X5.05Y-3.625
X5.065Y-4.525
X5.125Y-3.475
T3
X3.3Y-3.725
X3.3Y-3.775
X3.3Y-3.825
X3.3Y-3.875
X3.3Y-3.925
X3.35Y-3.725
X3.35Y-3.775
X3.35Y-3.825
X3.35Y-3.875
X3.35Y-3.925
X4.05Y-4.175
X4.1Y-4.175
X4.15Y-4.175
X3.75Y-4.075
T4
X3.275Y-3.225
X3.275Y-3.275
X3.275Y-3.325
T5
X4.75Y-2.675
X4.75Y-3.3049
X4.85Y-2.675
X4.85Y-3.3049
X4.95Y-2.675
X4.95Y-3.3049
X5.05Y-2.675
X5.05Y-3.3049
T6
X3.1Y-2.7
X3.1Y-2.8
X3.1Y-2.9
X3.1Y-3.0
X3.1Y-3.1
X3.1Y-3.2
X3.1Y-3.3
X3.1Y-3.4
X3.1Y-3.5
X3.1Y-3.6
X3.1Y-3.7
X3.1Y-3.8
X3.1Y-3.9
X4.4Y-4.2
X4.5Y-4.2
X4.6Y-4.2
X4.7Y-4.2
X4.8Y-4.2
X4.9Y-4.2
X5.0Y-4.2
X5.1Y-4.2
X4.4Y-4.9
X4.5Y-4.9
X4.6Y-4.9
X4.7Y-4.9
X4.8Y-4.9
X4.9Y-4.9
X5.0Y-4.9
X5.1Y-4.9
T2
G00X3.5093Y-2.7685
M15
G01X3.5093Y-2.737
M16
G05
G00X3.7907Y-2.737
M15
G01X3.7907Y-2.7685
M16
G05
T0
M30
