G04 #@! TF.GenerationSoftware,KiCad,Pcbnew,(5.1.6)-1*
G04 #@! TF.CreationDate,2021-05-29T12:10:38-05:00*
G04 #@! TF.ProjectId,SapphineMinimal,53617070-6869-46e6-954d-696e696d616c,rev?*
G04 #@! TF.SameCoordinates,Original*
G04 #@! TF.FileFunction,Copper,L4,Bot*
G04 #@! TF.FilePolarity,Positive*
%FSLAX46Y46*%
G04 Gerber Fmt 4.6, Leading zero omitted, Abs format (unit mm)*
G04 Created by KiCad (PCBNEW (5.1.6)-1) date 2021-05-29 12:10:38*
%MOMM*%
%LPD*%
G01*
G04 APERTURE LIST*
G04 #@! TA.AperFunction,EtchedComponent*
%ADD10C,0.100000*%
G04 #@! TD*
G04 #@! TA.AperFunction,SMDPad,CuDef*
%ADD11R,1.500000X1.000000*%
G04 #@! TD*
G04 #@! TA.AperFunction,SMDPad,CuDef*
%ADD12C,0.100000*%
G04 #@! TD*
G04 #@! TA.AperFunction,ComponentPad*
%ADD13O,1.700000X1.700000*%
G04 #@! TD*
G04 #@! TA.AperFunction,ComponentPad*
%ADD14R,1.700000X1.700000*%
G04 #@! TD*
G04 #@! TA.AperFunction,ComponentPad*
%ADD15C,1.217000*%
G04 #@! TD*
G04 #@! TA.AperFunction,ComponentPad*
%ADD16R,1.217000X1.217000*%
G04 #@! TD*
G04 #@! TA.AperFunction,Conductor*
%ADD17R,1.680000X1.680000*%
G04 #@! TD*
G04 #@! TA.AperFunction,ViaPad*
%ADD18C,0.500000*%
G04 #@! TD*
G04 #@! TA.AperFunction,SMDPad,CuDef*
%ADD19R,1.000000X1.500000*%
G04 #@! TD*
G04 #@! TA.AperFunction,ComponentPad*
%ADD20O,1.000000X1.000000*%
G04 #@! TD*
G04 #@! TA.AperFunction,ComponentPad*
%ADD21R,1.000000X1.000000*%
G04 #@! TD*
G04 #@! TA.AperFunction,SMDPad,CuDef*
%ADD22C,2.000000*%
G04 #@! TD*
G04 #@! TA.AperFunction,ComponentPad*
%ADD23O,0.900000X1.600000*%
G04 #@! TD*
G04 #@! TA.AperFunction,ViaPad*
%ADD24C,0.800000*%
G04 #@! TD*
G04 #@! TA.AperFunction,Conductor*
%ADD25C,0.200660*%
G04 #@! TD*
G04 #@! TA.AperFunction,Conductor*
%ADD26C,0.381000*%
G04 #@! TD*
G04 #@! TA.AperFunction,Conductor*
%ADD27C,0.250000*%
G04 #@! TD*
G04 APERTURE END LIST*
D10*
G36*
X83682000Y-71166000D02*
G01*
X84182000Y-71166000D01*
X84182000Y-70566000D01*
X83682000Y-70566000D01*
X83682000Y-71166000D01*
G37*
G36*
X82412000Y-68118000D02*
G01*
X82912000Y-68118000D01*
X82912000Y-67518000D01*
X82412000Y-67518000D01*
X82412000Y-68118000D01*
G37*
D11*
X78740000Y-95885000D03*
G04 #@! TA.AperFunction,SMDPad,CuDef*
D12*
G36*
X77990602Y-94585000D02*
G01*
X77990602Y-94560466D01*
X77995412Y-94511635D01*
X78004984Y-94463510D01*
X78019228Y-94416555D01*
X78038005Y-94371222D01*
X78061136Y-94327949D01*
X78088396Y-94287150D01*
X78119524Y-94249221D01*
X78154221Y-94214524D01*
X78192150Y-94183396D01*
X78232949Y-94156136D01*
X78276222Y-94133005D01*
X78321555Y-94114228D01*
X78368510Y-94099984D01*
X78416635Y-94090412D01*
X78465466Y-94085602D01*
X78490000Y-94085602D01*
X78490000Y-94085000D01*
X78990000Y-94085000D01*
X78990000Y-94085602D01*
X79014534Y-94085602D01*
X79063365Y-94090412D01*
X79111490Y-94099984D01*
X79158445Y-94114228D01*
X79203778Y-94133005D01*
X79247051Y-94156136D01*
X79287850Y-94183396D01*
X79325779Y-94214524D01*
X79360476Y-94249221D01*
X79391604Y-94287150D01*
X79418864Y-94327949D01*
X79441995Y-94371222D01*
X79460772Y-94416555D01*
X79475016Y-94463510D01*
X79484588Y-94511635D01*
X79489398Y-94560466D01*
X79489398Y-94585000D01*
X79490000Y-94585000D01*
X79490000Y-95135000D01*
X77990000Y-95135000D01*
X77990000Y-94585000D01*
X77990602Y-94585000D01*
G37*
G04 #@! TD.AperFunction*
G04 #@! TA.AperFunction,SMDPad,CuDef*
G36*
X79490000Y-96635000D02*
G01*
X79490000Y-97185000D01*
X79489398Y-97185000D01*
X79489398Y-97209534D01*
X79484588Y-97258365D01*
X79475016Y-97306490D01*
X79460772Y-97353445D01*
X79441995Y-97398778D01*
X79418864Y-97442051D01*
X79391604Y-97482850D01*
X79360476Y-97520779D01*
X79325779Y-97555476D01*
X79287850Y-97586604D01*
X79247051Y-97613864D01*
X79203778Y-97636995D01*
X79158445Y-97655772D01*
X79111490Y-97670016D01*
X79063365Y-97679588D01*
X79014534Y-97684398D01*
X78990000Y-97684398D01*
X78990000Y-97685000D01*
X78490000Y-97685000D01*
X78490000Y-97684398D01*
X78465466Y-97684398D01*
X78416635Y-97679588D01*
X78368510Y-97670016D01*
X78321555Y-97655772D01*
X78276222Y-97636995D01*
X78232949Y-97613864D01*
X78192150Y-97586604D01*
X78154221Y-97555476D01*
X78119524Y-97520779D01*
X78088396Y-97482850D01*
X78061136Y-97442051D01*
X78038005Y-97398778D01*
X78019228Y-97353445D01*
X78004984Y-97306490D01*
X77995412Y-97258365D01*
X77990602Y-97209534D01*
X77990602Y-97185000D01*
X77990000Y-97185000D01*
X77990000Y-96635000D01*
X79490000Y-96635000D01*
G37*
G04 #@! TD.AperFunction*
D13*
X78994000Y-104140000D03*
X78994000Y-106680000D03*
X78994000Y-109220000D03*
X78994000Y-111760000D03*
X78994000Y-114300000D03*
D14*
X78994000Y-116840000D03*
D15*
X127508000Y-68074000D03*
X124968000Y-68074000D03*
X122428000Y-68074000D03*
X119888000Y-68074000D03*
X119888000Y-84074000D03*
X122428000Y-84074000D03*
X124968000Y-84074000D03*
D16*
X127508000Y-84074000D03*
D17*
X121412000Y-115824000D03*
D18*
X122002000Y-116414000D03*
X120822000Y-116414000D03*
X122002000Y-115234000D03*
X120822000Y-115234000D03*
G04 #@! TA.AperFunction,SMDPad,CuDef*
D12*
G36*
X83832000Y-71616000D02*
G01*
X83282000Y-71616000D01*
X83282000Y-71615398D01*
X83257466Y-71615398D01*
X83208635Y-71610588D01*
X83160510Y-71601016D01*
X83113555Y-71586772D01*
X83068222Y-71567995D01*
X83024949Y-71544864D01*
X82984150Y-71517604D01*
X82946221Y-71486476D01*
X82911524Y-71451779D01*
X82880396Y-71413850D01*
X82853136Y-71373051D01*
X82830005Y-71329778D01*
X82811228Y-71284445D01*
X82796984Y-71237490D01*
X82787412Y-71189365D01*
X82782602Y-71140534D01*
X82782602Y-71116000D01*
X82782000Y-71116000D01*
X82782000Y-70616000D01*
X82782602Y-70616000D01*
X82782602Y-70591466D01*
X82787412Y-70542635D01*
X82796984Y-70494510D01*
X82811228Y-70447555D01*
X82830005Y-70402222D01*
X82853136Y-70358949D01*
X82880396Y-70318150D01*
X82911524Y-70280221D01*
X82946221Y-70245524D01*
X82984150Y-70214396D01*
X83024949Y-70187136D01*
X83068222Y-70164005D01*
X83113555Y-70145228D01*
X83160510Y-70130984D01*
X83208635Y-70121412D01*
X83257466Y-70116602D01*
X83282000Y-70116602D01*
X83282000Y-70116000D01*
X83832000Y-70116000D01*
X83832000Y-71616000D01*
G37*
G04 #@! TD.AperFunction*
D19*
X84582000Y-70866000D03*
G04 #@! TA.AperFunction,SMDPad,CuDef*
D12*
G36*
X85882000Y-70116602D02*
G01*
X85906534Y-70116602D01*
X85955365Y-70121412D01*
X86003490Y-70130984D01*
X86050445Y-70145228D01*
X86095778Y-70164005D01*
X86139051Y-70187136D01*
X86179850Y-70214396D01*
X86217779Y-70245524D01*
X86252476Y-70280221D01*
X86283604Y-70318150D01*
X86310864Y-70358949D01*
X86333995Y-70402222D01*
X86352772Y-70447555D01*
X86367016Y-70494510D01*
X86376588Y-70542635D01*
X86381398Y-70591466D01*
X86381398Y-70616000D01*
X86382000Y-70616000D01*
X86382000Y-71116000D01*
X86381398Y-71116000D01*
X86381398Y-71140534D01*
X86376588Y-71189365D01*
X86367016Y-71237490D01*
X86352772Y-71284445D01*
X86333995Y-71329778D01*
X86310864Y-71373051D01*
X86283604Y-71413850D01*
X86252476Y-71451779D01*
X86217779Y-71486476D01*
X86179850Y-71517604D01*
X86139051Y-71544864D01*
X86095778Y-71567995D01*
X86050445Y-71586772D01*
X86003490Y-71601016D01*
X85955365Y-71610588D01*
X85906534Y-71615398D01*
X85882000Y-71615398D01*
X85882000Y-71616000D01*
X85332000Y-71616000D01*
X85332000Y-70116000D01*
X85882000Y-70116000D01*
X85882000Y-70116602D01*
G37*
G04 #@! TD.AperFunction*
D13*
X78740000Y-88900000D03*
X78740000Y-86360000D03*
X78740000Y-83820000D03*
X78740000Y-81280000D03*
X78740000Y-78740000D03*
X78740000Y-76200000D03*
X78740000Y-73660000D03*
D14*
X78740000Y-71120000D03*
D13*
X115570000Y-106680000D03*
X118110000Y-106680000D03*
X120650000Y-106680000D03*
X123190000Y-106680000D03*
D14*
X125730000Y-106680000D03*
G04 #@! TA.AperFunction,SMDPad,CuDef*
D12*
G36*
X82562000Y-68568000D02*
G01*
X82012000Y-68568000D01*
X82012000Y-68567398D01*
X81987466Y-68567398D01*
X81938635Y-68562588D01*
X81890510Y-68553016D01*
X81843555Y-68538772D01*
X81798222Y-68519995D01*
X81754949Y-68496864D01*
X81714150Y-68469604D01*
X81676221Y-68438476D01*
X81641524Y-68403779D01*
X81610396Y-68365850D01*
X81583136Y-68325051D01*
X81560005Y-68281778D01*
X81541228Y-68236445D01*
X81526984Y-68189490D01*
X81517412Y-68141365D01*
X81512602Y-68092534D01*
X81512602Y-68068000D01*
X81512000Y-68068000D01*
X81512000Y-67568000D01*
X81512602Y-67568000D01*
X81512602Y-67543466D01*
X81517412Y-67494635D01*
X81526984Y-67446510D01*
X81541228Y-67399555D01*
X81560005Y-67354222D01*
X81583136Y-67310949D01*
X81610396Y-67270150D01*
X81641524Y-67232221D01*
X81676221Y-67197524D01*
X81714150Y-67166396D01*
X81754949Y-67139136D01*
X81798222Y-67116005D01*
X81843555Y-67097228D01*
X81890510Y-67082984D01*
X81938635Y-67073412D01*
X81987466Y-67068602D01*
X82012000Y-67068602D01*
X82012000Y-67068000D01*
X82562000Y-67068000D01*
X82562000Y-68568000D01*
G37*
G04 #@! TD.AperFunction*
D19*
X83312000Y-67818000D03*
G04 #@! TA.AperFunction,SMDPad,CuDef*
D12*
G36*
X84612000Y-67068602D02*
G01*
X84636534Y-67068602D01*
X84685365Y-67073412D01*
X84733490Y-67082984D01*
X84780445Y-67097228D01*
X84825778Y-67116005D01*
X84869051Y-67139136D01*
X84909850Y-67166396D01*
X84947779Y-67197524D01*
X84982476Y-67232221D01*
X85013604Y-67270150D01*
X85040864Y-67310949D01*
X85063995Y-67354222D01*
X85082772Y-67399555D01*
X85097016Y-67446510D01*
X85106588Y-67494635D01*
X85111398Y-67543466D01*
X85111398Y-67568000D01*
X85112000Y-67568000D01*
X85112000Y-68068000D01*
X85111398Y-68068000D01*
X85111398Y-68092534D01*
X85106588Y-68141365D01*
X85097016Y-68189490D01*
X85082772Y-68236445D01*
X85063995Y-68281778D01*
X85040864Y-68325051D01*
X85013604Y-68365850D01*
X84982476Y-68403779D01*
X84947779Y-68438476D01*
X84909850Y-68469604D01*
X84869051Y-68496864D01*
X84825778Y-68519995D01*
X84780445Y-68538772D01*
X84733490Y-68553016D01*
X84685365Y-68562588D01*
X84636534Y-68567398D01*
X84612000Y-68567398D01*
X84612000Y-68568000D01*
X84062000Y-68568000D01*
X84062000Y-67068000D01*
X84612000Y-67068000D01*
X84612000Y-67068602D01*
G37*
G04 #@! TD.AperFunction*
G04 #@! TA.AperFunction,SMDPad,CuDef*
G36*
G01*
X101940000Y-122636999D02*
X101940000Y-123937001D01*
G75*
G02*
X101690001Y-124187000I-249999J0D01*
G01*
X100989999Y-124187000D01*
G75*
G02*
X100740000Y-123937001I0J249999D01*
G01*
X100740000Y-122636999D01*
G75*
G02*
X100989999Y-122387000I249999J0D01*
G01*
X101690001Y-122387000D01*
G75*
G02*
X101940000Y-122636999I0J-249999D01*
G01*
G37*
G04 #@! TD.AperFunction*
G04 #@! TA.AperFunction,SMDPad,CuDef*
G36*
G01*
X107540000Y-122636999D02*
X107540000Y-123937001D01*
G75*
G02*
X107290001Y-124187000I-249999J0D01*
G01*
X106589999Y-124187000D01*
G75*
G02*
X106340000Y-123937001I0J249999D01*
G01*
X106340000Y-122636999D01*
G75*
G02*
X106589999Y-122387000I249999J0D01*
G01*
X107290001Y-122387000D01*
G75*
G02*
X107540000Y-122636999I0J-249999D01*
G01*
G37*
G04 #@! TD.AperFunction*
G04 #@! TA.AperFunction,SMDPad,CuDef*
G36*
G01*
X102940000Y-118787000D02*
X102940000Y-120037000D01*
G75*
G02*
X102790000Y-120187000I-150000J0D01*
G01*
X102490000Y-120187000D01*
G75*
G02*
X102340000Y-120037000I0J150000D01*
G01*
X102340000Y-118787000D01*
G75*
G02*
X102490000Y-118637000I150000J0D01*
G01*
X102790000Y-118637000D01*
G75*
G02*
X102940000Y-118787000I0J-150000D01*
G01*
G37*
G04 #@! TD.AperFunction*
G04 #@! TA.AperFunction,SMDPad,CuDef*
G36*
G01*
X103940000Y-118787000D02*
X103940000Y-120037000D01*
G75*
G02*
X103790000Y-120187000I-150000J0D01*
G01*
X103490000Y-120187000D01*
G75*
G02*
X103340000Y-120037000I0J150000D01*
G01*
X103340000Y-118787000D01*
G75*
G02*
X103490000Y-118637000I150000J0D01*
G01*
X103790000Y-118637000D01*
G75*
G02*
X103940000Y-118787000I0J-150000D01*
G01*
G37*
G04 #@! TD.AperFunction*
G04 #@! TA.AperFunction,SMDPad,CuDef*
G36*
G01*
X104940000Y-118787000D02*
X104940000Y-120037000D01*
G75*
G02*
X104790000Y-120187000I-150000J0D01*
G01*
X104490000Y-120187000D01*
G75*
G02*
X104340000Y-120037000I0J150000D01*
G01*
X104340000Y-118787000D01*
G75*
G02*
X104490000Y-118637000I150000J0D01*
G01*
X104790000Y-118637000D01*
G75*
G02*
X104940000Y-118787000I0J-150000D01*
G01*
G37*
G04 #@! TD.AperFunction*
G04 #@! TA.AperFunction,SMDPad,CuDef*
G36*
G01*
X105940000Y-118787000D02*
X105940000Y-120037000D01*
G75*
G02*
X105790000Y-120187000I-150000J0D01*
G01*
X105490000Y-120187000D01*
G75*
G02*
X105340000Y-120037000I0J150000D01*
G01*
X105340000Y-118787000D01*
G75*
G02*
X105490000Y-118637000I150000J0D01*
G01*
X105790000Y-118637000D01*
G75*
G02*
X105940000Y-118787000I0J-150000D01*
G01*
G37*
G04 #@! TD.AperFunction*
D20*
X84328000Y-98552000D03*
X83058000Y-98552000D03*
X84328000Y-97282000D03*
X83058000Y-97282000D03*
X84328000Y-96012000D03*
X83058000Y-96012000D03*
X84328000Y-94742000D03*
X83058000Y-94742000D03*
X84328000Y-93472000D03*
D21*
X83058000Y-93472000D03*
D22*
X86995000Y-115570000D03*
D20*
X105410000Y-106045000D03*
X104140000Y-106045000D03*
D21*
X102870000Y-106045000D03*
D23*
X96010000Y-69342000D03*
X89410000Y-69342000D03*
D21*
X95250000Y-103505000D03*
D22*
X86995000Y-107950000D03*
X86995000Y-111760000D03*
D13*
X110490000Y-124460000D03*
X113030000Y-124460000D03*
X115570000Y-124460000D03*
X118110000Y-124460000D03*
X120650000Y-124460000D03*
X123190000Y-124460000D03*
X125730000Y-124460000D03*
D14*
X128270000Y-124460000D03*
G04 #@! TA.AperFunction,SMDPad,CuDef*
G36*
G01*
X122227000Y-118170000D02*
X125127000Y-118170000D01*
G75*
G02*
X125377000Y-118420000I0J-250000D01*
G01*
X125377000Y-119420000D01*
G75*
G02*
X125127000Y-119670000I-250000J0D01*
G01*
X122227000Y-119670000D01*
G75*
G02*
X121977000Y-119420000I0J250000D01*
G01*
X121977000Y-118420000D01*
G75*
G02*
X122227000Y-118170000I250000J0D01*
G01*
G37*
G04 #@! TD.AperFunction*
G04 #@! TA.AperFunction,SMDPad,CuDef*
G36*
G01*
X122227000Y-111470000D02*
X125127000Y-111470000D01*
G75*
G02*
X125377000Y-111720000I0J-250000D01*
G01*
X125377000Y-112720000D01*
G75*
G02*
X125127000Y-112970000I-250000J0D01*
G01*
X122227000Y-112970000D01*
G75*
G02*
X121977000Y-112720000I0J250000D01*
G01*
X121977000Y-111720000D01*
G75*
G02*
X122227000Y-111470000I250000J0D01*
G01*
G37*
G04 #@! TD.AperFunction*
G04 #@! TA.AperFunction,SMDPad,CuDef*
G36*
G01*
X116427000Y-116070000D02*
X119427000Y-116070000D01*
G75*
G02*
X119677000Y-116320000I0J-250000D01*
G01*
X119677000Y-116820000D01*
G75*
G02*
X119427000Y-117070000I-250000J0D01*
G01*
X116427000Y-117070000D01*
G75*
G02*
X116177000Y-116820000I0J250000D01*
G01*
X116177000Y-116320000D01*
G75*
G02*
X116427000Y-116070000I250000J0D01*
G01*
G37*
G04 #@! TD.AperFunction*
G04 #@! TA.AperFunction,SMDPad,CuDef*
G36*
G01*
X116427000Y-114070000D02*
X119427000Y-114070000D01*
G75*
G02*
X119677000Y-114320000I0J-250000D01*
G01*
X119677000Y-114820000D01*
G75*
G02*
X119427000Y-115070000I-250000J0D01*
G01*
X116427000Y-115070000D01*
G75*
G02*
X116177000Y-114820000I0J250000D01*
G01*
X116177000Y-114320000D01*
G75*
G02*
X116427000Y-114070000I250000J0D01*
G01*
G37*
G04 #@! TD.AperFunction*
D24*
X103505000Y-99695000D03*
X98171000Y-67691000D03*
X108585000Y-81280000D03*
X108624148Y-71948106D03*
X119319549Y-85912451D03*
X101092000Y-86614000D03*
X80264000Y-69596000D03*
X106044564Y-82649607D03*
X91694000Y-100838000D03*
X96266000Y-78994000D03*
X79121000Y-67945000D03*
X82042000Y-87757008D03*
X100000182Y-81458182D03*
X88092643Y-89444138D03*
X119380000Y-69469000D03*
X123952000Y-113919000D03*
X125233177Y-74586519D03*
X113081182Y-67815500D03*
X92204500Y-92644000D03*
X88643500Y-77024595D03*
X92075000Y-113345000D03*
X122936000Y-113919000D03*
X123698000Y-109601000D03*
X121539000Y-109601000D03*
X99631500Y-85026500D03*
X99631500Y-83947000D03*
X104140000Y-92710000D03*
X105410000Y-92710000D03*
X106680000Y-92710000D03*
X107950000Y-92710000D03*
X105410000Y-95250000D03*
X106680000Y-95250000D03*
X107950000Y-95250000D03*
X104140000Y-91440000D03*
X105410000Y-91440000D03*
X107950000Y-91440000D03*
X84455000Y-110490000D03*
X85090000Y-105410000D03*
X86541331Y-105606418D03*
X123698000Y-68834000D03*
X90358000Y-118178502D03*
X106680000Y-91440000D03*
X104140000Y-95250004D03*
X122558067Y-109571830D03*
X119761000Y-73406000D03*
X120650000Y-73914000D03*
X106150601Y-120584000D03*
X124460000Y-94436818D03*
X127000000Y-92075000D03*
X124460000Y-89916000D03*
X90435633Y-73079386D03*
X110744000Y-80137000D03*
X100965000Y-81915000D03*
X127400111Y-73906071D03*
X98679000Y-113665000D03*
X100867172Y-118788988D03*
X99083395Y-103725142D03*
X130618660Y-122555000D03*
X122047000Y-122174000D03*
X94580262Y-108524000D03*
X83806025Y-112964000D03*
X125984000Y-120142000D03*
X94996000Y-73660000D03*
X94996000Y-77075000D03*
X85981839Y-68709839D03*
X124968000Y-81026000D03*
X120904000Y-85852000D03*
X104734486Y-82890486D03*
X120964731Y-79634307D03*
X85413612Y-82353388D03*
X95526414Y-87737011D03*
X122047000Y-69469000D03*
X125232517Y-76653985D03*
X104648000Y-120904000D03*
X93071324Y-121313510D03*
X125603000Y-100457000D03*
X99695000Y-111125000D03*
X110109000Y-112395000D03*
X110109000Y-114173000D03*
X108966000Y-114173000D03*
X110109000Y-115443000D03*
X128331660Y-74295000D03*
X98100000Y-103540000D03*
X120650000Y-122176991D03*
X91216296Y-107435537D03*
X91427973Y-109285340D03*
X115090350Y-72422744D03*
X116300593Y-81427198D03*
X124320229Y-121938007D03*
X92634851Y-76591627D03*
X93267519Y-74612515D03*
X90416340Y-78112612D03*
X92385718Y-74326546D03*
X93609637Y-76713059D03*
X94163068Y-74373049D03*
X81280000Y-90170000D03*
X80645000Y-100711000D03*
X86995000Y-115570000D03*
X88044458Y-92470383D03*
X80137000Y-102679500D03*
X80355656Y-110456463D03*
X86995000Y-111760000D03*
X83468191Y-101802729D03*
X80645000Y-101727000D03*
X80891340Y-107721500D03*
X89420146Y-101841862D03*
X106426000Y-81534000D03*
X113592847Y-83573475D03*
X86995000Y-107950000D03*
X92257840Y-80642342D03*
X89923660Y-100435287D03*
X94234000Y-97917000D03*
X104083784Y-115353045D03*
X102489000Y-121475500D03*
X82804000Y-115633500D03*
X107315000Y-118745000D03*
X84769876Y-114561660D03*
X94043500Y-100838000D03*
X103695500Y-116194821D03*
X117474999Y-95536056D03*
X118871370Y-79884177D03*
X117607606Y-81894291D03*
X129032000Y-110363000D03*
X91694000Y-94742000D03*
X118173500Y-109728000D03*
X114483977Y-109290023D03*
X114935000Y-120650000D03*
X102217881Y-101911584D03*
X112902998Y-73660000D03*
X110980594Y-69764749D03*
X93664705Y-81145340D03*
X110029964Y-74177877D03*
X110735799Y-71835333D03*
X118022007Y-93172491D03*
X114109500Y-79502000D03*
X83566000Y-83693000D03*
X87503000Y-77597000D03*
X117475002Y-97154988D03*
X110008316Y-73178099D03*
X112776000Y-76072998D03*
X107333749Y-71619520D03*
X101092000Y-80010000D03*
X88870020Y-80254476D03*
X88870014Y-84836000D03*
X117474990Y-99822000D03*
X112780664Y-74925345D03*
X104775000Y-72263000D03*
X93472000Y-85344000D03*
X104083200Y-70689991D03*
X102241168Y-103059874D03*
X94869001Y-81026000D03*
X101600000Y-70612000D03*
X90416340Y-81179853D03*
X117474992Y-94536045D03*
X110236000Y-87122000D03*
X88011000Y-122936000D03*
X93946271Y-93759728D03*
X86684936Y-93272257D03*
X100330000Y-88355010D03*
X94996000Y-89154000D03*
X88870014Y-91480295D03*
X85598000Y-91440000D03*
X86741000Y-92329000D03*
X88233311Y-90599900D03*
X86614000Y-88646000D03*
X116967000Y-91821000D03*
X115132411Y-83953714D03*
X112522000Y-90170000D03*
X99822000Y-90170000D03*
X95313500Y-113418660D03*
X95235600Y-106867989D03*
X106898994Y-107602199D03*
X93345000Y-104457500D03*
X84582000Y-103314500D03*
X84765912Y-106719390D03*
X91178340Y-103251000D03*
X101092000Y-120523000D03*
X88748784Y-118104842D03*
X77514000Y-96139000D03*
X125349000Y-109410500D03*
X108839000Y-111379000D03*
X115824000Y-109212340D03*
X126492000Y-74549000D03*
X85090000Y-79121000D03*
X83566000Y-86106000D03*
X85598000Y-83566000D03*
X91694000Y-97790000D03*
X90678000Y-116205000D03*
X90551000Y-113792000D03*
X91115508Y-119370371D03*
X120523000Y-102616000D03*
X128270000Y-90805000D03*
X118981133Y-89700578D03*
X117094000Y-103106990D03*
X124532177Y-72455603D03*
X122809000Y-78486000D03*
X130429000Y-87884000D03*
X101981000Y-117983000D03*
X128442225Y-69372040D03*
X127762000Y-87883996D03*
X128270000Y-89535000D03*
X119822660Y-100231145D03*
X118110000Y-77724000D03*
X124968000Y-70866000D03*
X129032000Y-68453000D03*
X98467098Y-117001486D03*
X129286000Y-85217000D03*
X117340340Y-86525445D03*
X88138000Y-67945000D03*
X128905000Y-105664000D03*
X108839000Y-110236000D03*
X114234917Y-107790868D03*
X105664000Y-70829010D03*
X94742016Y-86233000D03*
X88678625Y-79031781D03*
X114935000Y-70866000D03*
X86042500Y-103941840D03*
X80772000Y-98552000D03*
X86841248Y-102589248D03*
X84836000Y-102108000D03*
X84145360Y-100988906D03*
D25*
X80299000Y-66767000D02*
X79121000Y-67945000D01*
X83211660Y-66767000D02*
X80299000Y-66767000D01*
X83312000Y-67818000D02*
X83312000Y-66867340D01*
X83312000Y-66867340D02*
X83211660Y-66767000D01*
D26*
X120666000Y-116570000D02*
X121412000Y-115824000D01*
X117927000Y-116570000D02*
X120666000Y-116570000D01*
D25*
X105640000Y-119412000D02*
X106150601Y-119922601D01*
X106150601Y-119922601D02*
X106150601Y-120584000D01*
D27*
X94996000Y-73660000D02*
X94996000Y-77075000D01*
X94996000Y-73660000D02*
X93635339Y-72299339D01*
X89571339Y-72299339D02*
X85981839Y-68709839D01*
X93635339Y-72299339D02*
X89571339Y-72299339D01*
D25*
X104640000Y-119412000D02*
X104640000Y-120896000D01*
X104640000Y-120896000D02*
X104648000Y-120904000D01*
D27*
X89283000Y-69215000D02*
X89410000Y-69342000D01*
X93267519Y-75958959D02*
X93267519Y-74612515D01*
X92634851Y-76591627D02*
X93267519Y-75958959D01*
X90416340Y-78112612D02*
X90416340Y-77236519D01*
X92385718Y-75267141D02*
X92385718Y-74326546D01*
X90416340Y-77236519D02*
X92385718Y-75267141D01*
X93609637Y-76713059D02*
X94163068Y-76159628D01*
X94163068Y-76159628D02*
X94163068Y-74373049D01*
D25*
X87122000Y-115570000D02*
X87122000Y-115570000D01*
X87876614Y-114815388D02*
X87122002Y-115570000D01*
X87876614Y-113665000D02*
X87876614Y-114815388D01*
X88044458Y-94198212D02*
X87122000Y-95120670D01*
X88044458Y-92470383D02*
X88044458Y-94198212D01*
X81280000Y-90170000D02*
X81679999Y-90569999D01*
X81679999Y-99676001D02*
X80645000Y-100711000D01*
X81679999Y-90569999D02*
X81679999Y-99676001D01*
D27*
X87944401Y-109984988D02*
X88897012Y-110937599D01*
X85508332Y-108551334D02*
X86941986Y-109984988D01*
X85815661Y-105061682D02*
X85815661Y-105758318D01*
X88897012Y-112644602D02*
X87876614Y-113665000D01*
X88897012Y-110937599D02*
X88897012Y-112644602D01*
X85508332Y-106065647D02*
X85508332Y-108551334D01*
X85234001Y-102801963D02*
X85234001Y-104480022D01*
X86941986Y-109984988D02*
X87944401Y-109984988D01*
X85815661Y-105758318D02*
X85508332Y-106065647D01*
X87122000Y-95120670D02*
X87122000Y-100913964D01*
X87122000Y-100913964D02*
X85234001Y-102801963D01*
X85234001Y-104480022D02*
X85815661Y-105061682D01*
D25*
X80137000Y-102679500D02*
X80264000Y-102806500D01*
X80264000Y-110364807D02*
X80355656Y-110456463D01*
X80264000Y-102806500D02*
X80264000Y-110364807D01*
D27*
X87122000Y-111760000D02*
X87122000Y-111760000D01*
X87122000Y-111760000D02*
X84702609Y-109340609D01*
D25*
X86995000Y-111633000D02*
X87122000Y-111760000D01*
X87122000Y-111760000D02*
X83468191Y-108106191D01*
X83468191Y-102368414D02*
X83468191Y-101802729D01*
X83468191Y-108106191D02*
X83468191Y-102368414D01*
X81044999Y-102126999D02*
X81044999Y-107567841D01*
X81044999Y-107567841D02*
X80891340Y-107721500D01*
X80645000Y-101727000D02*
X81044999Y-102126999D01*
D27*
X87122000Y-108204000D02*
X87122000Y-108204000D01*
X108465475Y-83573475D02*
X113592847Y-83573475D01*
X106426000Y-81534000D02*
X108465475Y-83573475D01*
D25*
X91040001Y-83484498D02*
X92257840Y-82266659D01*
X92257840Y-82266659D02*
X92257840Y-80642342D01*
X91040001Y-93891980D02*
X91040001Y-83484498D01*
D27*
X91040001Y-93891980D02*
X91040001Y-97945715D01*
X89923660Y-105402340D02*
X89923660Y-101000972D01*
X90198659Y-101063349D02*
X89420146Y-101841862D01*
X91040001Y-97945715D02*
X90198659Y-98787056D01*
X87122000Y-108204000D02*
X89923660Y-105402340D01*
X89923660Y-101000972D02*
X89923660Y-100435287D01*
X90198659Y-98787056D02*
X90198659Y-101063349D01*
D25*
X94703924Y-98316999D02*
X102142669Y-105755744D01*
X102142669Y-105755744D02*
X102142669Y-113411930D01*
X102142669Y-113411930D02*
X104083784Y-115353045D01*
X94633999Y-98316999D02*
X94703924Y-98316999D01*
X94234000Y-97917000D02*
X94633999Y-98316999D01*
X100027139Y-119489979D02*
X95726160Y-115189000D01*
X89655847Y-115189000D02*
X87719845Y-117125002D01*
X102489000Y-121475500D02*
X102489000Y-120909815D01*
X86304137Y-117125001D02*
X84812636Y-115633500D01*
X95726160Y-115189000D02*
X89655847Y-115189000D01*
X87719845Y-117125002D02*
X86304137Y-117125001D01*
X101069164Y-119489979D02*
X100027139Y-119489979D01*
X84812636Y-115633500D02*
X82804000Y-115633500D01*
X102489000Y-120909815D02*
X101069164Y-119489979D01*
X86439862Y-116797331D02*
X84769876Y-115127345D01*
X84769876Y-115127345D02*
X84769876Y-114561660D01*
X87584120Y-116797331D02*
X86439862Y-116797331D01*
X105399829Y-116829829D02*
X99740388Y-116829829D01*
X89520121Y-114861330D02*
X87584120Y-116797331D01*
X97771889Y-114861330D02*
X89520121Y-114861330D01*
X99740388Y-116829829D02*
X97771889Y-114861330D01*
X107315000Y-118745000D02*
X105399829Y-116829829D01*
X95798000Y-100838000D02*
X94043500Y-100838000D01*
X98994669Y-105734669D02*
X96900000Y-103640000D01*
X103695500Y-116194821D02*
X98994669Y-111493990D01*
X96900000Y-103640000D02*
X96900000Y-101940000D01*
X98994669Y-111493990D02*
X98994669Y-105734669D01*
X96900000Y-101940000D02*
X95798000Y-100838000D01*
X118616000Y-68074000D02*
X116459000Y-70231000D01*
X116459000Y-70231000D02*
X116459000Y-77471807D01*
X116459000Y-77471807D02*
X118871370Y-79884177D01*
X119888000Y-68074000D02*
X118616000Y-68074000D01*
D27*
X118781637Y-94229418D02*
X118781637Y-92025270D01*
X117474999Y-95536056D02*
X118781637Y-94229418D01*
X117607606Y-83138764D02*
X117607606Y-81894291D01*
X115479637Y-85266733D02*
X117607606Y-83138764D01*
X115479637Y-88723270D02*
X115479637Y-85266733D01*
X118781637Y-92025270D02*
X115479637Y-88723270D01*
D25*
X118173500Y-114323500D02*
X117927000Y-114570000D01*
X118173500Y-109728000D02*
X118173500Y-114323500D01*
D26*
X117927000Y-114570000D02*
X122134000Y-110363000D01*
X129002839Y-110392161D02*
X129032000Y-110363000D01*
X123318242Y-110392161D02*
X129002839Y-110392161D01*
X123289081Y-110363000D02*
X123318242Y-110392161D01*
X122134000Y-110363000D02*
X123289081Y-110363000D01*
D25*
X115236122Y-107882270D02*
X115236122Y-108537878D01*
X112141000Y-103759000D02*
X113919000Y-105537000D01*
X113919000Y-105537000D02*
X113919000Y-106565148D01*
X95115331Y-97935039D02*
X97362951Y-100182659D01*
X91694000Y-94742000D02*
X92259685Y-94742000D01*
X97362951Y-100182659D02*
X97743952Y-100182660D01*
X103511210Y-103828710D02*
X104076500Y-104394000D01*
X115236122Y-108537878D02*
X114483977Y-109290023D01*
X95115331Y-97597646D02*
X95115331Y-97935039D01*
X104076500Y-104394000D02*
X107653211Y-104394000D01*
X92259685Y-94742000D02*
X95115331Y-97597646D01*
X113919000Y-106565148D02*
X115236122Y-107882270D01*
X97743952Y-100182660D02*
X101390002Y-103828710D01*
X108288211Y-103759000D02*
X112141000Y-103759000D01*
X101390002Y-103828710D02*
X103511210Y-103828710D01*
X107653211Y-104394000D02*
X108288211Y-103759000D01*
D26*
X129032000Y-110588090D02*
X129032000Y-110363000D01*
X118970090Y-120650000D02*
X129032000Y-110588090D01*
X114935000Y-120650000D02*
X118970090Y-120650000D01*
D27*
X93073999Y-93809539D02*
X93073999Y-93447726D01*
X101176044Y-101911584D02*
X93073999Y-93809539D01*
X102217881Y-101911584D02*
X101176044Y-101911584D01*
X93073999Y-93447726D02*
X93414011Y-93107714D01*
X112502999Y-74059999D02*
X112902998Y-73660000D01*
X94639959Y-87012001D02*
X96029001Y-87012001D01*
X96029001Y-87012001D02*
X96791001Y-86250001D01*
X100312997Y-86250001D02*
X112502999Y-74059999D01*
X96791001Y-86250001D02*
X100312997Y-86250001D01*
X93414011Y-93107714D02*
X93414011Y-88237949D01*
X93414011Y-88237949D02*
X94639959Y-87012001D01*
X98595295Y-75590726D02*
X93664705Y-80521316D01*
X93664705Y-80521316D02*
X93664705Y-81145340D01*
X98595295Y-75140705D02*
X98595295Y-75590726D01*
X110980594Y-69764749D02*
X103971251Y-69764749D01*
X103971251Y-69764749D02*
X98595295Y-75140705D01*
X110595649Y-74177877D02*
X110029964Y-74177877D01*
X110735799Y-71835333D02*
X110735799Y-74037727D01*
X110735799Y-74037727D02*
X110595649Y-74177877D01*
D25*
X78740000Y-81280000D02*
X81153000Y-83693000D01*
X81153000Y-83693000D02*
X83566000Y-83693000D01*
X83566000Y-83693000D02*
X83566000Y-81534000D01*
X83566000Y-81534000D02*
X87503000Y-77597000D01*
D27*
X114109500Y-81747836D02*
X114109500Y-79502000D01*
X118022007Y-93172491D02*
X118022007Y-91798813D01*
X115784421Y-83422757D02*
X114109500Y-81747836D01*
X118022007Y-91798813D02*
X115102626Y-88879433D01*
X115784421Y-84428774D02*
X115784421Y-83422757D01*
X115102626Y-85110567D02*
X115784421Y-84428774D01*
X115102626Y-88879433D02*
X115102626Y-85110567D01*
X110008316Y-73178099D02*
X108326643Y-73178099D01*
X107333749Y-72185205D02*
X107333749Y-71619520D01*
X108326643Y-73178099D02*
X107333749Y-72185205D01*
D25*
X107333749Y-71619520D02*
X107333749Y-73768251D01*
X107333749Y-73768251D02*
X101092000Y-80010000D01*
X88870020Y-80254476D02*
X88870020Y-84835994D01*
X88870020Y-84835994D02*
X88870014Y-84836000D01*
D27*
X119158648Y-91869107D02*
X115856648Y-88567107D01*
X118259616Y-81556614D02*
X112776000Y-76072998D01*
X118259616Y-83019927D02*
X118259616Y-81556614D01*
X117475002Y-97154988D02*
X119158648Y-95471342D01*
X115856648Y-85422893D02*
X118259616Y-83019927D01*
X115856648Y-88567107D02*
X115856648Y-85422893D01*
X119158648Y-95471342D02*
X119158648Y-91869107D01*
D25*
X104775000Y-72263000D02*
X93472000Y-83566000D01*
X93472000Y-83566000D02*
X93472000Y-85344000D01*
D27*
X119535659Y-91712945D02*
X116233659Y-88410944D01*
X119535659Y-97761331D02*
X119535659Y-91712945D01*
X116233659Y-85579056D02*
X118636627Y-83176089D01*
X118636627Y-83176089D02*
X118636627Y-81288912D01*
X118636627Y-81288912D02*
X114037669Y-76689954D01*
X114037669Y-76689954D02*
X114037669Y-76182350D01*
X116233659Y-88410944D02*
X116233659Y-85579056D01*
X114037669Y-76182350D02*
X112780664Y-74925345D01*
X117474990Y-99822000D02*
X119535659Y-97761331D01*
X92696988Y-94081379D02*
X92696988Y-93225491D01*
X92696988Y-92062509D02*
X92696988Y-83198013D01*
X92696988Y-83198013D02*
X94869001Y-81026000D01*
X104083200Y-70689991D02*
X104083200Y-72384083D01*
X92696988Y-93225491D02*
X92930161Y-92992318D01*
X92930161Y-92992318D02*
X92930161Y-92295682D01*
X104083200Y-72384083D02*
X95441283Y-81026000D01*
X95441283Y-81026000D02*
X94869001Y-81026000D01*
X92930161Y-92295682D02*
X92696988Y-92062509D01*
X102241168Y-103059874D02*
X101675483Y-103059874D01*
X101675483Y-103059874D02*
X92696988Y-94081379D01*
X93777865Y-77818328D02*
X90416340Y-81179853D01*
X95731282Y-76480718D02*
X95731282Y-77818328D01*
X95731282Y-77818328D02*
X93777865Y-77818328D01*
X101600000Y-70612000D02*
X95731282Y-76480718D01*
X110801685Y-87122000D02*
X110236000Y-87122000D01*
X117474992Y-94536045D02*
X117474992Y-93795307D01*
X117474992Y-93795307D02*
X110801685Y-87122000D01*
D25*
X88011000Y-122370315D02*
X88011000Y-122936000D01*
X86168413Y-117452671D02*
X86782172Y-117452672D01*
X86782172Y-117452672D02*
X88011000Y-118681500D01*
X85047740Y-116332000D02*
X86168413Y-117452671D01*
X84328000Y-98552000D02*
X81795668Y-101084332D01*
X81795668Y-101084332D02*
X81795668Y-115934620D01*
X81795668Y-115934620D02*
X82193048Y-116332000D01*
X82193048Y-116332000D02*
X85047740Y-116332000D01*
X88011000Y-118681500D02*
X88011000Y-122370315D01*
X94511956Y-93759728D02*
X93946271Y-93759728D01*
X117074993Y-94136046D02*
X94888274Y-94136046D01*
X94888274Y-94136046D02*
X94511956Y-93759728D01*
X117474992Y-94536045D02*
X117074993Y-94136046D01*
X84328000Y-98552000D02*
X86684936Y-96195064D01*
X86684936Y-96195064D02*
X86684936Y-93272257D01*
X95394991Y-88755009D02*
X94996000Y-89154000D01*
X100330000Y-88355010D02*
X99930001Y-88755009D01*
X99930001Y-88755009D02*
X95394991Y-88755009D01*
X78740000Y-94585000D02*
X78740000Y-91694000D01*
X78740000Y-91694000D02*
X81026000Y-89408000D01*
X81026000Y-89408000D02*
X83566000Y-89408000D01*
X83566000Y-89408000D02*
X85598000Y-91440000D01*
X84328000Y-94742000D02*
X87589705Y-91480295D01*
X87589705Y-91480295D02*
X88870014Y-91480295D01*
X87154129Y-90645871D02*
X88187340Y-90645871D01*
X88187340Y-90645871D02*
X88233311Y-90599900D01*
X87122000Y-89154000D02*
X87122000Y-90678000D01*
X86614000Y-88646000D02*
X87122000Y-89154000D01*
X87122000Y-90678000D02*
X87154129Y-90645871D01*
X84328000Y-93472000D02*
X84494452Y-93472000D01*
X87122000Y-90844452D02*
X87122000Y-90678000D01*
X84494452Y-93472000D02*
X87122000Y-90844452D01*
X113168117Y-88022117D02*
X113168117Y-85918008D01*
X113168117Y-85918008D02*
X115132411Y-83953714D01*
X116967000Y-91821000D02*
X113168117Y-88022117D01*
D27*
X112522000Y-90170000D02*
X99822000Y-90170000D01*
D25*
X95313500Y-113418660D02*
X95313500Y-106945889D01*
X95313500Y-106945889D02*
X95235600Y-106867989D01*
X102870000Y-106045000D02*
X104427199Y-107602199D01*
X104427199Y-107602199D02*
X106898994Y-107602199D01*
X94297500Y-103505000D02*
X95250000Y-103505000D01*
X93345000Y-104457500D02*
X94297500Y-103505000D01*
X84182001Y-106135479D02*
X84765912Y-106719390D01*
X84182001Y-103714499D02*
X84182001Y-106135479D01*
X84582000Y-103314500D02*
X84182001Y-103714499D01*
X93345000Y-104457500D02*
X92384840Y-104457500D01*
X92384840Y-104457500D02*
X91178340Y-103251000D01*
D26*
X101092000Y-120523000D02*
X91166942Y-120523000D01*
X91166942Y-120523000D02*
X88748784Y-118104842D01*
D25*
X78486000Y-96139000D02*
X78740000Y-95885000D01*
X77514000Y-96139000D02*
X78486000Y-96139000D01*
X108839000Y-111379000D02*
X110109000Y-110109000D01*
X110109000Y-110109000D02*
X114927340Y-110109000D01*
X114927340Y-110109000D02*
X115824000Y-109212340D01*
X82423000Y-69469000D02*
X84135660Y-69469000D01*
X78740000Y-76200000D02*
X80063330Y-74876670D01*
X80063330Y-74876670D02*
X80063330Y-73621274D01*
X84135660Y-69469000D02*
X84582000Y-69915340D01*
X84582000Y-69915340D02*
X84582000Y-70866000D01*
X81871264Y-70020736D02*
X82423000Y-69469000D01*
X81871264Y-71813340D02*
X81871264Y-70020736D01*
X80063330Y-73621274D02*
X81871264Y-71813340D01*
X81543593Y-70856407D02*
X78740000Y-73660000D01*
X82012000Y-67818000D02*
X81543593Y-68286407D01*
X81543593Y-68286407D02*
X81543593Y-70856407D01*
X85882000Y-69835592D02*
X85882000Y-70866000D01*
X84612000Y-68565592D02*
X85882000Y-69835592D01*
X84612000Y-67818000D02*
X84612000Y-68565592D01*
X85090000Y-79121000D02*
X82169000Y-79121000D01*
X82169000Y-79121000D02*
X80391000Y-77343000D01*
X80391000Y-73757000D02*
X83282000Y-70866000D01*
X80391000Y-77343000D02*
X80391000Y-73757000D01*
X85598000Y-84074000D02*
X85598000Y-83566000D01*
X83566000Y-86106000D02*
X85598000Y-84074000D01*
X91115508Y-116642508D02*
X91115508Y-119370371D01*
X90678000Y-116205000D02*
X91115508Y-116642508D01*
X91694000Y-97790000D02*
X90551000Y-98933000D01*
X90151001Y-113392001D02*
X90551000Y-113792000D01*
X90151001Y-107556335D02*
X90151001Y-113392001D01*
X90551000Y-107156336D02*
X90151001Y-107556335D01*
X90551000Y-98933000D02*
X90551000Y-107156336D01*
X117094000Y-105156000D02*
X117094000Y-103106990D01*
X115570000Y-106680000D02*
X117094000Y-105156000D01*
X124532177Y-76762823D02*
X122809000Y-78486000D01*
X124532177Y-72455603D02*
X124532177Y-76762823D01*
X103640000Y-119412000D02*
X103640000Y-120932492D01*
X105111160Y-121604332D02*
X105342493Y-121372999D01*
X104311840Y-121604332D02*
X105111160Y-121604332D01*
X103640000Y-120932492D02*
X104311840Y-121604332D01*
X114492669Y-125537331D02*
X109281331Y-125537331D01*
X115570000Y-124460000D02*
X114492669Y-125537331D01*
X109281331Y-125537331D02*
X108839000Y-125095000D01*
X108839000Y-125095000D02*
X108839000Y-121666000D01*
X108839000Y-121666000D02*
X108458000Y-121285000D01*
X108458000Y-121285000D02*
X105410000Y-121285000D01*
X105410000Y-121305492D02*
X105111160Y-121604332D01*
X105410000Y-121285000D02*
X105410000Y-121305492D01*
X130429000Y-88646000D02*
X130429000Y-87884000D01*
D27*
X129667000Y-88646000D02*
X130429000Y-87884000D01*
X120035711Y-88646000D02*
X129667000Y-88646000D01*
X118981133Y-89700578D02*
X120035711Y-88646000D01*
D25*
X130563660Y-87884000D02*
X130429000Y-87884000D01*
X128270000Y-90805000D02*
X130429000Y-88646000D01*
X103640000Y-118637000D02*
X102986000Y-117983000D01*
X102986000Y-117983000D02*
X101981000Y-117983000D01*
X103640000Y-119412000D02*
X103640000Y-118637000D01*
X129031991Y-73958840D02*
X128442225Y-73369074D01*
X129031991Y-74631160D02*
X129031991Y-73958840D01*
X128511998Y-85966998D02*
X128511998Y-75151153D01*
X130429000Y-87884000D02*
X128511998Y-85966998D01*
X125358662Y-72455603D02*
X128442225Y-69372040D01*
X128511998Y-75151153D02*
X129031991Y-74631160D01*
X124532177Y-72455603D02*
X125358662Y-72455603D01*
X128442225Y-73369074D02*
X128442225Y-69372040D01*
X116005780Y-109839672D02*
X114847452Y-110998000D01*
X114847452Y-110998000D02*
X110148451Y-110998000D01*
X110148451Y-110998000D02*
X107876329Y-113270122D01*
X107876329Y-113270122D02*
X107876329Y-116766329D01*
X114720001Y-123610001D02*
X115570000Y-124460000D01*
X116451332Y-107561332D02*
X116451332Y-109513460D01*
X107876329Y-116766329D02*
X114720001Y-123610001D01*
X116125120Y-109839672D02*
X116005780Y-109839672D01*
X116451332Y-109513460D02*
X116125120Y-109839672D01*
X115570000Y-106680000D02*
X116451332Y-107561332D01*
X127432925Y-87883996D02*
X127762000Y-87883996D01*
X118110000Y-106680000D02*
X118110000Y-101943805D01*
X118110000Y-101943805D02*
X119822660Y-100231145D01*
X124968000Y-70866000D02*
X118110000Y-77724000D01*
X119800001Y-125309999D02*
X120650000Y-124460000D01*
X118745000Y-126365000D02*
X119800001Y-125309999D01*
X108712000Y-126365000D02*
X118745000Y-126365000D01*
X108277671Y-125930671D02*
X108712000Y-126365000D01*
X102640000Y-119412000D02*
X102640000Y-120395888D01*
X108277671Y-122374671D02*
X108277671Y-125930671D01*
X102640000Y-120395888D02*
X104237783Y-121993671D01*
X104237783Y-121993671D02*
X107896671Y-121993671D01*
X107896671Y-121993671D02*
X108277671Y-122374671D01*
X100471033Y-117401485D02*
X98867097Y-117401485D01*
X102481548Y-119412000D02*
X100471033Y-117401485D01*
X98867097Y-117401485D02*
X98467098Y-117001486D01*
X102640000Y-119412000D02*
X102481548Y-119412000D01*
X129032000Y-84963000D02*
X129286000Y-85217000D01*
X129431999Y-68852999D02*
X129431999Y-74694548D01*
X129032000Y-68453000D02*
X129431999Y-68852999D01*
X124968000Y-70866000D02*
X126061071Y-70866000D01*
X128474071Y-68453000D02*
X129032000Y-68453000D01*
X129032000Y-75094547D02*
X129032000Y-84963000D01*
X129431999Y-74694548D02*
X129032000Y-75094547D01*
X126061071Y-70866000D02*
X128474071Y-68453000D01*
X115248492Y-122555000D02*
X118745000Y-122555000D01*
X116260845Y-110167343D02*
X116141505Y-110167343D01*
X116141505Y-110167343D02*
X112903001Y-113405847D01*
X108204000Y-113405847D02*
X108204000Y-115510508D01*
X112903001Y-113405847D02*
X108204000Y-113405847D01*
X118110000Y-106680000D02*
X118110000Y-108318188D01*
X108204000Y-115510508D02*
X115248492Y-122555000D01*
X118745000Y-122555000D02*
X120650000Y-124460000D01*
X118110000Y-108318188D02*
X116260845Y-110167343D01*
X127762000Y-87883996D02*
X118698891Y-87883996D01*
X118698891Y-87883996D02*
X117340340Y-86525445D01*
X96492403Y-68516500D02*
X116395500Y-68516500D01*
X129984500Y-86247721D02*
X131064000Y-87327221D01*
X127581071Y-66802000D02*
X127835071Y-67056000D01*
X127835071Y-67056000D02*
X129159000Y-67056000D01*
X95920903Y-67945000D02*
X96492403Y-68516500D01*
X129984500Y-67881500D02*
X129984500Y-86247721D01*
X129159000Y-67056000D02*
X129984500Y-67881500D01*
X116395500Y-68516500D02*
X118110000Y-66802000D01*
X88138000Y-67945000D02*
X95920903Y-67945000D01*
X118110000Y-66802000D02*
X127581071Y-66802000D01*
X128905000Y-105664000D02*
X129667000Y-104902000D01*
X129667000Y-104902000D02*
X130048000Y-104902000D01*
X131064000Y-103886000D02*
X131064000Y-103505000D01*
X130048000Y-104902000D02*
X131064000Y-103886000D01*
X131064000Y-87327221D02*
X131064000Y-103505000D01*
X131064000Y-103505000D02*
X131064000Y-103695500D01*
X109599195Y-109475805D02*
X112549980Y-109475805D01*
X108839000Y-110236000D02*
X109599195Y-109475805D01*
X112549980Y-109475805D02*
X114234917Y-107790868D01*
D27*
X105647874Y-70812884D02*
X105664000Y-70829010D01*
X105572886Y-70812884D02*
X105647874Y-70812884D01*
D26*
X105664000Y-70829010D02*
X114390010Y-70829010D01*
D27*
X105664000Y-74491315D02*
X94742016Y-85413299D01*
X94742016Y-85413299D02*
X94742016Y-86233000D01*
X105664000Y-70829010D02*
X105664000Y-74491315D01*
D25*
X114898010Y-70829010D02*
X114390010Y-70829010D01*
X114935000Y-70866000D02*
X114898010Y-70829010D01*
X88678625Y-79031781D02*
X89497354Y-79850510D01*
X86442499Y-103541841D02*
X86042500Y-103941840D01*
X89497354Y-99933142D02*
X86841248Y-102589248D01*
X86442499Y-102987997D02*
X86442499Y-103541841D01*
X89497354Y-79850510D02*
X89497354Y-99933142D01*
X78740000Y-97185000D02*
X80107000Y-98552000D01*
X80107000Y-98552000D02*
X80772000Y-98552000D01*
X86841248Y-102589248D02*
X86442499Y-102987997D01*
X84709000Y-102235000D02*
X84836000Y-102108000D01*
X84709000Y-101552546D02*
X84145360Y-100988906D01*
X84709000Y-102235000D02*
X84709000Y-101552546D01*
X114390010Y-70829010D02*
X114390010Y-76290010D01*
X118988968Y-80888968D02*
X118988968Y-83322032D01*
X114390010Y-76290010D02*
X118988968Y-80888968D01*
X118988968Y-83322032D02*
X116586000Y-85725000D01*
X116586000Y-85725000D02*
X116586000Y-88265002D01*
X116586000Y-88265002D02*
X119888000Y-91567002D01*
X119888000Y-91567002D02*
X119888000Y-98298000D01*
X125730000Y-104140000D02*
X125730000Y-106680000D01*
X119888000Y-98298000D02*
X125730000Y-104140000D01*
M02*
