G04 #@! TF.GenerationSoftware,KiCad,Pcbnew,(5.1.6)-1*
G04 #@! TF.CreationDate,2021-05-29T12:10:38-05:00*
G04 #@! TF.ProjectId,SapphineMinimal,53617070-6869-46e6-954d-696e696d616c,rev?*
G04 #@! TF.SameCoordinates,Original*
G04 #@! TF.FileFunction,Paste,Bot*
G04 #@! TF.FilePolarity,Positive*
%FSLAX46Y46*%
G04 Gerber Fmt 4.6, Leading zero omitted, Abs format (unit mm)*
G04 Created by KiCad (PCBNEW (5.1.6)-1) date 2021-05-29 12:10:38*
%MOMM*%
%LPD*%
G01*
G04 APERTURE LIST*
G04 APERTURE END LIST*
G36*
G01*
X101940000Y-122636999D02*
X101940000Y-123937001D01*
G75*
G02*
X101690001Y-124187000I-249999J0D01*
G01*
X100989999Y-124187000D01*
G75*
G02*
X100740000Y-123937001I0J249999D01*
G01*
X100740000Y-122636999D01*
G75*
G02*
X100989999Y-122387000I249999J0D01*
G01*
X101690001Y-122387000D01*
G75*
G02*
X101940000Y-122636999I0J-249999D01*
G01*
G37*
G36*
G01*
X107540000Y-122636999D02*
X107540000Y-123937001D01*
G75*
G02*
X107290001Y-124187000I-249999J0D01*
G01*
X106589999Y-124187000D01*
G75*
G02*
X106340000Y-123937001I0J249999D01*
G01*
X106340000Y-122636999D01*
G75*
G02*
X106589999Y-122387000I249999J0D01*
G01*
X107290001Y-122387000D01*
G75*
G02*
X107540000Y-122636999I0J-249999D01*
G01*
G37*
G36*
G01*
X102940000Y-118787000D02*
X102940000Y-120037000D01*
G75*
G02*
X102790000Y-120187000I-150000J0D01*
G01*
X102490000Y-120187000D01*
G75*
G02*
X102340000Y-120037000I0J150000D01*
G01*
X102340000Y-118787000D01*
G75*
G02*
X102490000Y-118637000I150000J0D01*
G01*
X102790000Y-118637000D01*
G75*
G02*
X102940000Y-118787000I0J-150000D01*
G01*
G37*
G36*
G01*
X103940000Y-118787000D02*
X103940000Y-120037000D01*
G75*
G02*
X103790000Y-120187000I-150000J0D01*
G01*
X103490000Y-120187000D01*
G75*
G02*
X103340000Y-120037000I0J150000D01*
G01*
X103340000Y-118787000D01*
G75*
G02*
X103490000Y-118637000I150000J0D01*
G01*
X103790000Y-118637000D01*
G75*
G02*
X103940000Y-118787000I0J-150000D01*
G01*
G37*
G36*
G01*
X104940000Y-118787000D02*
X104940000Y-120037000D01*
G75*
G02*
X104790000Y-120187000I-150000J0D01*
G01*
X104490000Y-120187000D01*
G75*
G02*
X104340000Y-120037000I0J150000D01*
G01*
X104340000Y-118787000D01*
G75*
G02*
X104490000Y-118637000I150000J0D01*
G01*
X104790000Y-118637000D01*
G75*
G02*
X104940000Y-118787000I0J-150000D01*
G01*
G37*
G36*
G01*
X105940000Y-118787000D02*
X105940000Y-120037000D01*
G75*
G02*
X105790000Y-120187000I-150000J0D01*
G01*
X105490000Y-120187000D01*
G75*
G02*
X105340000Y-120037000I0J150000D01*
G01*
X105340000Y-118787000D01*
G75*
G02*
X105490000Y-118637000I150000J0D01*
G01*
X105790000Y-118637000D01*
G75*
G02*
X105940000Y-118787000I0J-150000D01*
G01*
G37*
G36*
G01*
X122227000Y-118170000D02*
X125127000Y-118170000D01*
G75*
G02*
X125377000Y-118420000I0J-250000D01*
G01*
X125377000Y-119420000D01*
G75*
G02*
X125127000Y-119670000I-250000J0D01*
G01*
X122227000Y-119670000D01*
G75*
G02*
X121977000Y-119420000I0J250000D01*
G01*
X121977000Y-118420000D01*
G75*
G02*
X122227000Y-118170000I250000J0D01*
G01*
G37*
G36*
G01*
X122227000Y-111470000D02*
X125127000Y-111470000D01*
G75*
G02*
X125377000Y-111720000I0J-250000D01*
G01*
X125377000Y-112720000D01*
G75*
G02*
X125127000Y-112970000I-250000J0D01*
G01*
X122227000Y-112970000D01*
G75*
G02*
X121977000Y-112720000I0J250000D01*
G01*
X121977000Y-111720000D01*
G75*
G02*
X122227000Y-111470000I250000J0D01*
G01*
G37*
G36*
G01*
X116427000Y-116070000D02*
X119427000Y-116070000D01*
G75*
G02*
X119677000Y-116320000I0J-250000D01*
G01*
X119677000Y-116820000D01*
G75*
G02*
X119427000Y-117070000I-250000J0D01*
G01*
X116427000Y-117070000D01*
G75*
G02*
X116177000Y-116820000I0J250000D01*
G01*
X116177000Y-116320000D01*
G75*
G02*
X116427000Y-116070000I250000J0D01*
G01*
G37*
G36*
G01*
X116427000Y-114070000D02*
X119427000Y-114070000D01*
G75*
G02*
X119677000Y-114320000I0J-250000D01*
G01*
X119677000Y-114820000D01*
G75*
G02*
X119427000Y-115070000I-250000J0D01*
G01*
X116427000Y-115070000D01*
G75*
G02*
X116177000Y-114820000I0J250000D01*
G01*
X116177000Y-114320000D01*
G75*
G02*
X116427000Y-114070000I250000J0D01*
G01*
G37*
M02*
